<svg width="854" height="539" viewBox="0 0 854 539" fill="none" xmlns="http://www.w3.org/2000/svg">
<path d="M426.676 539C662.239 539 853.2 501.881 853.2 456.093C853.2 410.304 662.239 373.186 426.676 373.186C191.113 373.186 0.151855 410.304 0.151855 456.093C0.151855 501.881 191.113 539 426.676 539Z" fill="url(#paint0_linear)"/>
<path d="M719.256 298.056L756.356 437.382C756.532 438.063 756.573 438.772 756.475 439.469C756.377 440.165 756.143 440.836 755.785 441.441C755.428 442.047 754.954 442.576 754.392 442.999C753.83 443.421 753.189 443.729 752.508 443.903C752.078 443.965 751.642 443.965 751.212 443.903C750.023 443.908 748.868 443.51 747.934 442.775C747 442.039 746.343 441.01 746.068 439.853L708.928 300.567C708.571 299.187 708.775 297.722 709.496 296.492C710.217 295.262 711.397 294.368 712.776 294.006C714.124 293.647 715.559 293.838 716.767 294.537C717.974 295.236 718.855 296.385 719.216 297.732L719.256 298.056Z" fill="#8245DE"/>
<path d="M650.729 298.015L623.35 436.369C623.104 437.862 623.46 439.391 624.341 440.621C625.222 441.851 626.555 442.682 628.048 442.93H628.939C630.1 442.931 631.225 442.528 632.119 441.788C633.014 441.049 633.623 440.02 633.84 438.88L661.259 300.566C661.505 299.137 661.198 297.669 660.401 296.458C659.604 295.247 658.376 294.384 656.966 294.045C655.693 293.695 654.334 293.86 653.182 294.504C652.03 295.148 651.178 296.22 650.81 297.488C650.81 297.488 650.729 297.853 650.729 298.015Z" fill="#8245DE"/>
<path d="M694.39 298.581L718.205 437.381C718.314 438.147 718.27 438.927 718.076 439.676C717.882 440.426 717.542 441.129 717.075 441.746C716.608 442.363 716.024 442.882 715.356 443.273C714.689 443.664 713.95 443.919 713.183 444.023H712.454C711.303 444.037 710.187 443.635 709.309 442.89C708.431 442.146 707.85 441.111 707.675 439.973L683.779 301.174C683.587 299.729 683.936 298.264 684.758 297.06C685.581 295.857 686.819 294.999 688.234 294.653C689.459 294.288 690.778 294.424 691.902 295.032C693.026 295.64 693.863 296.669 694.228 297.893C694.309 298.115 694.363 298.346 694.39 298.581Z" fill="#8245DE"/>
<path d="M623.798 299.351L575.196 437.544C574.731 438.747 574.759 440.086 575.275 441.269C575.79 442.452 576.752 443.383 577.95 443.862C578.535 444.074 579.151 444.184 579.773 444.186C580.994 444.168 582.178 443.767 583.159 443.041C584.14 442.314 584.868 441.298 585.241 440.136L633.843 301.984C634.08 301.396 634.199 300.768 634.193 300.134C634.187 299.5 634.057 298.874 633.808 298.291C633.56 297.708 633.199 297.179 632.746 296.736C632.294 296.292 631.758 295.942 631.17 295.706H630.562C629.184 295.391 627.739 295.587 626.495 296.258C625.251 296.928 624.293 298.028 623.798 299.351Z" fill="#8245DE"/>
<path d="M644.538 192.387C656.688 170.962 673.172 149.779 696.744 142.691C711.284 138.277 726.959 139.816 741.944 142.367C753.228 143.746 764.129 147.338 774.022 152.938C778.951 155.771 783.125 159.748 786.192 164.535C789.259 169.322 791.128 174.777 791.64 180.439C791.455 186.99 790.082 193.454 787.59 199.515L765.395 263.387C762.479 271.77 759.32 280.559 752.637 286.432C745.998 291.373 738.279 294.663 730.118 296.031C703.67 302.633 677.02 309.235 649.803 310.045C622.586 310.855 594.396 305.346 572.161 289.794C564.061 284.204 556.608 274.363 560.901 265.493C564.263 258.81 573.052 257.028 580.504 257.392C600.148 258.202 605.858 255.934 617.442 239.855C628.013 224.991 635.587 208.223 644.538 192.387Z" fill="#505365"/>
<path d="M629.218 170.638C626.639 175.133 623.132 179.027 618.93 182.059L566.886 225.437C562.066 229.487 556.72 234.712 557.692 240.949C557.746 241.58 558.002 242.176 558.421 242.65C558.801 242.947 559.237 243.165 559.703 243.29C560.17 243.415 560.656 243.446 561.134 243.379C566.432 243.261 571.701 242.568 576.849 241.314C582.276 239.977 588.351 237.263 589.445 231.634C589.728 230.095 589.445 228.515 589.85 226.976C590.373 225.133 591.268 223.416 592.48 221.932C593.692 220.448 595.195 219.229 596.897 218.349C600.948 215.635 604.552 212.517 608.44 209.763C616.095 204.254 624.034 199.111 632.174 194.332C637.885 190.97 646.795 187.041 650.198 181.006C653.6 174.972 650.765 166.061 648.699 159.905C647.322 155.855 645.58 155.288 641.49 154.721C637.399 154.154 633.187 152.898 631.81 157.434C630.433 161.971 631.243 166.304 629.218 170.638Z" fill="#EC9C7D"/>
<path d="M716.47 143.257C707.479 148.441 699.905 143.054 697.556 133.78C696.584 129.729 696.179 125.355 694.843 121.183C692.804 115.997 690.08 111.106 686.742 106.643C683.348 102.179 680.908 97.0644 679.573 91.6172C678.956 88.876 679.08 86.0196 679.935 83.3426C680.789 80.6657 682.342 78.2651 684.434 76.3885C684.912 75.9499 685.475 75.6126 686.087 75.3968C686.7 75.1811 687.35 75.0913 687.998 75.133C690.063 75.3355 691.157 77.6845 691.643 79.7906C691.725 81.9135 692.052 84.02 692.615 86.0684C693.42 87.4479 694.489 88.6552 695.76 89.6212C697.032 90.5872 698.482 91.2929 700.027 91.6982C707.034 94.5738 714.567 97.1254 719.468 102.836C723.636 108.123 725.634 114.8 725.057 121.507C724.652 128.109 722.708 139.733 716.47 143.257Z" fill="#2F3554"/>
<path d="M623.6 186.595L620.725 199.839C620.146 201.781 619.967 203.82 620.198 205.833C620.841 208.307 622.143 210.561 623.965 212.354C637.411 227.744 649.238 229.04 669.124 227.38C680.749 226.497 692.218 224.171 703.267 220.454C701.647 203.484 703.267 180.276 706.426 173.107C714.77 153.869 725.057 128.353 713.109 113.813C703.429 102.067 685.771 103.201 674.997 103.525C666.897 103.525 657.541 100.609 650.088 104.457C642.636 108.305 637.249 117.377 633.888 124.019C631.825 128.11 630 132.315 628.42 136.615C628.186 137.126 628.049 137.675 628.015 138.235C628.101 139.017 628.426 139.753 628.947 140.342L633.766 147.389C626.921 157.352 626.152 174.971 623.6 186.595Z" fill="white"/>
<path d="M668.393 35.2794C667.154 35.8358 666.05 36.6505 665.152 37.669C662.885 41.4204 661.269 45.5286 660.373 49.8195L654.095 67.6402C654.095 67.6402 633.521 68.0048 637.895 47.3894C640.122 36.5349 646.967 26.4095 658.875 25.3564C661.612 25.3868 664.335 25.7679 666.975 26.4905C670.109 27.0576 673.319 27.0576 676.453 26.4905C677.668 26.2475 679.126 25.964 680.017 26.8145C680.368 27.2082 680.582 27.7057 680.626 28.2319C680.67 28.758 680.541 29.2841 680.26 29.7306C679.656 30.579 678.848 31.2616 677.911 31.7152C675.035 33.1328 671.39 33.7808 668.393 35.2794Z" fill="#2F3554"/>
<path d="M685.195 32.3227C685.195 32.3227 650.769 22.6428 645.139 46.7818C643.952 51.7701 643.367 56.8829 643.397 62.0105V67.2352C644.977 83.0309 652.875 95.0194 665.673 93.9259C688.233 92.1033 712.129 44.3922 685.195 32.3227Z" fill="#EC9C7D"/>
<path d="M681.143 77.4422C681.56 77.8503 682.12 78.0789 682.703 78.0789C683.286 78.0789 683.846 77.8503 684.262 77.4422C681.746 81.2266 680.176 85.5606 679.685 90.0787C677.944 103.08 684.262 103.647 684.262 103.647C660.811 116.769 657.328 107.697 657.328 107.697C658.835 105.58 659.713 103.082 659.864 100.489C660.014 97.8951 659.43 95.3118 658.179 93.0353C668.831 95.9514 678.43 83.3959 680.252 76.2676C680.416 76.7446 680.728 77.1564 681.143 77.4422Z" fill="#D68369"/>
<path d="M660.485 28.7582C662.307 28.1102 664.049 28.4342 665.871 27.9482C667.869 27.1786 669.761 26.1579 671.501 24.9106C676.214 22.7635 681.46 22.0724 686.568 22.926C690.583 23.1514 694.504 24.2283 698.07 26.0851C700.853 27.8545 703.199 30.2314 704.932 33.0373C706.664 35.8432 707.739 39.0052 708.074 42.2858C708.593 48.9281 707.187 55.5792 704.024 61.4431C703.452 62.4329 703.016 63.4956 702.728 64.6023C701.959 69.098 706.778 72.3381 708.641 76.7528C709.412 79.8066 709.901 82.9249 710.099 86.0682C711.517 92.589 717.39 97.0442 721.318 102.269C724.812 106.738 726.45 112.379 725.895 118.024C714.271 113.569 701.068 115.149 689.16 111.422C686.522 110.711 684.074 109.425 681.991 107.656C680.313 105.837 679.055 103.672 678.306 101.313C677.557 98.9546 677.336 96.4603 677.658 94.0066C678.062 90.4292 678.712 86.8837 679.602 83.3951C680.007 81.37 679.602 77.7249 681.667 76.3883C682.674 75.7033 683.73 75.0941 684.826 74.5657C686.069 73.8487 687.098 72.8146 687.81 71.5693C688.521 70.324 688.889 68.9121 688.877 67.4779C688.936 66.8735 688.837 66.2639 688.588 65.7097C688.339 65.1556 687.95 64.6761 687.459 64.3188C686.89 64.0646 686.258 63.9865 685.645 64.0948C685.031 64.2031 684.464 64.4927 684.016 64.9263C682.68 66.1008 682.842 67.5184 681.1 67.8424C679.223 67.8406 677.389 67.2763 675.835 66.2224C664.454 59.9041 660.08 43.2578 656.637 31.5123C658.136 31.2288 658.824 29.4468 660.485 28.7582Z" fill="#2F3554"/>
<path d="M687.463 151.4C696.94 123.899 703.258 110.371 712.898 113.814C712.898 113.814 725.534 120.092 718.366 145.365C710.265 173.716 689.123 200.245 689.123 200.245L679.281 178.576C679.281 178.576 682.481 166.547 687.463 151.4Z" fill="#EC9C7D"/>
<path d="M587.22 252.208C587.827 251.479 589.771 249.049 592.687 245.89C592.414 246.115 592.169 246.374 591.958 246.659C590.281 248.423 588.7 250.275 587.22 252.208Z" fill="#DC9BD5"/>
<path d="M701.844 212.434C688.843 213.203 675.153 214.094 661.788 216.038C661.788 216.038 609.135 260.226 602.655 270.918C587.143 295.746 572.076 288.698 594.555 324.988L639.512 397.567C647.126 400.119 655.267 393.517 657.495 385.417C659.019 377.418 658.203 369.149 655.145 361.602C650.528 345.968 646.032 330.294 641.577 314.701C640.162 311.263 640.162 307.405 641.577 303.968C642.862 302.26 644.526 300.873 646.438 299.917C651.784 296.758 655.429 289.265 661.342 287.443C671.399 284.77 680.969 280.519 689.693 274.847C698.517 269.101 704.717 260.107 706.947 249.817C709.134 237.545 703.383 225.111 701.844 212.434Z" fill="#8245DE"/>
<path d="M661.697 216.16C650.924 217.497 633.346 212.556 633.346 212.556C617.996 219.4 601.39 236.411 592.844 245.97C589.888 249.129 587.944 251.559 587.336 252.247L586.486 253.341C577.008 265.937 571.054 280.801 565.182 295.463L535.575 369.217C534.481 371.525 533.874 374.034 533.793 376.588C534.238 385.701 546.429 388.131 555.542 387.969L594.87 324.827C594.87 324.827 587.417 302.308 602.97 270.797C608.519 259.497 662.183 215.917 662.183 215.917L661.697 216.16Z" fill="#8245DE"/>
<path d="M661.697 216.16C650.924 217.497 633.346 212.556 633.346 212.556C617.996 219.4 601.39 236.411 592.844 245.97C589.888 249.129 587.944 251.559 587.336 252.247L586.486 253.341C577.008 265.937 571.054 280.801 565.182 295.463L535.575 369.217C534.481 371.525 533.874 374.034 533.793 376.588C534.238 385.701 546.429 388.131 555.542 387.969L594.87 324.827C594.87 324.827 587.417 302.308 602.97 270.797C608.519 259.497 662.183 215.917 662.183 215.917L661.697 216.16Z" fill="url(#paint1_linear)"/>
<path d="M640.313 403.766C641.204 401.538 642.176 399.351 643.269 397.205C645.21 395.344 647.326 393.676 649.588 392.223C650.519 391.413 655.906 386.836 655.582 385.54C656.802 389.877 658.415 394.093 660.402 398.136C662.01 400.522 662.805 403.363 662.67 406.236C661.817 408.823 660.119 411.048 657.85 412.555C649.426 419.481 639.422 426.042 628.608 424.705C628.275 424.725 627.942 424.669 627.634 424.543C627.325 424.417 627.049 424.223 626.826 423.976C626.532 423.611 626.388 423.148 626.421 422.68C626.421 417.86 630.916 414.58 634.521 411.421C636.855 409.201 638.811 406.616 640.313 403.766Z" fill="#EC9C7D"/>
<path d="M660.859 401.782C658.834 402.43 657.092 405.386 655.594 406.885C653.611 408.833 651.501 410.647 649.275 412.312C648.386 413.13 647.336 413.755 646.193 414.145C645.049 414.535 643.837 414.684 642.633 414.58C640.284 414.094 638.583 411.988 636.315 411.259C635.294 410.972 634.222 410.918 633.178 411.1C632.133 411.282 631.143 411.696 630.28 412.312C628.526 413.485 627.014 414.984 625.825 416.727C622.408 421.165 620.291 426.465 619.709 432.036C619.648 432.343 619.649 432.658 619.712 432.964C619.774 433.27 619.897 433.561 620.073 433.818C620.352 434.143 620.718 434.381 621.126 434.507C622.879 434.892 624.691 434.926 626.457 434.606C628.223 434.286 629.908 433.619 631.414 432.644C638.899 429.27 646.116 425.33 653.001 420.858C656.232 418.402 659.706 416.284 663.37 414.54C664.1 414.36 664.737 413.911 665.152 413.284C665.395 412.781 665.48 412.216 665.395 411.664C665.152 408.707 665.395 399.959 660.859 401.782Z" fill="#505365"/>
<path d="M722.169 121.832C719.82 115.513 707.872 101.054 699.772 106.967C694.604 110.821 690.904 116.321 689.282 122.561C688.512 125.436 688.229 128.514 687.5 131.471C686.528 135.116 684.989 138.599 684.341 142.285C683.746 146.187 683.678 150.151 684.138 154.071C691.833 152.991 699.502 151.857 707.143 150.669L718.646 148.846C720.792 148.522 725.166 149.373 726.179 147.145C726.662 145.85 726.747 144.439 726.422 143.095L725.49 136.574C724.925 131.753 723.866 127.003 722.331 122.399C722.296 122.205 722.242 122.015 722.169 121.832Z" fill="white"/>
<path d="M606.828 172.702L612.457 166.222C612.457 166.222 672.441 175.659 681.108 179.101C689.775 182.544 689.208 200.203 689.208 200.203C665.798 206.683 606.828 172.702 606.828 172.702Z" fill="#EC9C7D"/>
<path d="M617.59 174.486C617.393 175.21 616.984 175.859 616.415 176.349C615.787 176.698 615.101 176.931 614.39 177.037C610.137 178.05 606.857 181.411 602.847 182.991C598.964 185.224 594.417 186.013 590.008 185.219C586.087 184.034 582.382 182.229 579.032 179.872C576.934 178.709 575.056 177.188 573.483 175.377C572.707 174.462 572.179 173.363 571.952 172.185C571.725 171.007 571.806 169.791 572.187 168.653C573.483 165.413 577.493 164.36 580.976 163.874C585.668 163.186 590.418 162.983 595.152 163.267C599.202 163.55 603.252 164.806 607.302 165.049C612.892 165.373 619.736 167.438 617.59 174.486Z" fill="#EC9C7D"/>
<path d="M228.892 234.549L191.792 373.875C191.609 374.556 191.562 375.267 191.654 375.966C191.747 376.665 191.976 377.338 192.33 377.948C192.684 378.558 193.155 379.092 193.716 379.519C194.277 379.946 194.917 380.258 195.599 380.437C196.044 380.479 196.491 380.479 196.936 380.437C198.121 380.427 199.269 380.024 200.2 379.291C201.131 378.558 201.792 377.536 202.079 376.387L239.22 237.06C239.396 236.385 239.438 235.681 239.342 234.99C239.246 234.298 239.015 233.632 238.661 233.03C238.308 232.428 237.838 231.902 237.281 231.481C236.723 231.061 236.089 230.755 235.412 230.58H235.169C233.812 230.289 232.394 230.541 231.22 231.283C230.046 232.025 229.21 233.198 228.892 234.549Z" fill="#8245DE"/>
<path d="M297.597 234.548L324.976 372.862C325.222 374.355 324.866 375.884 323.985 377.115C323.104 378.345 321.771 379.175 320.278 379.423H319.387C318.226 379.425 317.101 379.021 316.207 378.282C315.312 377.542 314.703 376.513 314.486 375.373L287.067 237.06C286.822 235.636 287.13 234.172 287.928 232.968C288.726 231.764 289.953 230.909 291.36 230.579C292.617 230.216 293.966 230.366 295.113 230.996C296.259 231.626 297.109 232.685 297.476 233.941L297.597 234.548Z" fill="#8245DE"/>
<path d="M253.806 235.116L229.99 373.915C229.882 374.681 229.926 375.462 230.12 376.211C230.314 376.96 230.654 377.663 231.121 378.28C231.588 378.898 232.172 379.417 232.839 379.807C233.507 380.198 234.246 380.453 235.013 380.558H235.742C236.892 380.571 238.01 380.169 238.887 379.425C239.765 378.681 240.345 377.645 240.521 376.507L264.376 237.708C264.576 236.267 264.23 234.803 263.405 233.604C262.581 232.405 261.338 231.557 259.921 231.227C259.302 231.03 258.649 230.959 258.002 231.02C257.354 231.082 256.726 231.273 256.155 231.583C255.583 231.894 255.081 232.316 254.677 232.826C254.273 233.335 253.977 233.921 253.806 234.549V235.116Z" fill="#8245DE"/>
<path d="M324.376 235.763L372.979 373.955C373.444 375.159 373.415 376.497 372.9 377.68C372.384 378.863 371.423 379.795 370.224 380.273C369.64 380.486 369.023 380.595 368.402 380.597C367.181 380.579 365.997 380.179 365.016 379.452C364.035 378.726 363.307 377.709 362.934 376.547L314.332 238.355C314.095 237.767 313.975 237.139 313.981 236.505C313.987 235.871 314.118 235.245 314.366 234.662C314.615 234.079 314.976 233.55 315.428 233.107C315.881 232.663 316.417 232.313 317.005 232.077H317.613C318.995 231.765 320.445 231.966 321.69 232.645C322.934 233.323 323.889 234.431 324.376 235.763Z" fill="#8245DE"/>
<path d="M303.624 128.92C291.474 107.494 274.99 86.3121 251.418 79.1838C236.837 74.8096 221.203 76.3082 206.218 78.9003C194.936 80.2645 184.035 83.8431 174.14 89.4307C169.205 92.288 165.033 96.2954 161.98 101.112C158.926 105.928 157.082 111.411 156.603 117.093C156.764 123.648 158.137 130.116 160.653 136.17L182.848 200.041C185.764 208.425 188.923 217.214 195.606 223.087C202.227 228.059 209.954 231.352 218.125 232.685C244.532 239.287 271.223 245.93 298.44 246.74C325.657 247.55 353.847 242.001 376.082 226.246C383.98 220.656 391.635 210.814 387.301 202.188C383.98 195.464 375.151 193.682 367.739 194.087C348.095 194.897 342.385 192.629 330.801 176.591C320.149 161.645 312.575 144.716 303.624 128.92Z" fill="#505365"/>
<path d="M213.748 102.189C190.298 124.019 185.397 162.091 199.775 190.685C210.387 211.625 232.177 228.109 255.749 226.772C259.124 226.739 262.438 225.862 265.388 224.221C271.868 220.171 273.205 211.463 273.894 203.97C275.635 191.515 275.635 178.879 273.894 166.425C271.747 155.084 266.684 144.351 265.388 132.849C264.578 125.559 265.388 118.187 264.943 110.856C264.376 99.5159 261.864 87.7299 249.066 87.5273C235.86 87.7599 223.236 93.0007 213.748 102.189Z" fill="url(#paint2_linear)"/>
<path d="M256.314 128.152C256.759 132.051 256.841 135.983 256.557 139.897C255.868 144.555 255.747 149.334 255.139 154.032C253.794 163.503 251.584 172.83 248.537 181.898C247.693 183.586 247.19 185.425 247.058 187.309C246.926 189.192 247.167 191.084 247.768 192.874C249.191 194.976 251.167 196.644 253.479 197.693C257.812 200.164 261.579 203.364 265.629 205.794C270.457 208.154 275.469 210.118 280.615 211.666C295.681 216.608 324.276 224.101 330.229 202.675C337.034 178.374 342.744 154.64 347.159 129.772C349.31 121.223 350.759 112.514 351.493 103.729C351.493 96.6009 344.081 94.0898 337.641 92.7127L336.426 92.4697L332.7 91.7407C324.121 89.8677 315.688 87.3771 307.467 84.2883C298.152 80.9267 283.45 75.0945 271.34 80.9267C270.495 81.3218 269.683 81.7822 268.91 82.3038C256.111 90.2826 255.18 110.088 256.314 128.152Z" fill="white"/>
<path d="M384.794 168.53C381.103 171.411 377.573 174.494 374.223 177.765C369.403 183.719 367.095 184.61 359.683 180.843C352.747 177.348 347.081 171.768 343.482 164.885C339.437 156.96 336.064 148.709 333.397 140.22C332.536 138.175 332.093 135.978 332.093 133.76C332.093 131.541 332.536 129.344 333.397 127.3C335.301 121.548 337.447 115.838 339.796 110.248C341.538 106.198 351.623 116.567 352.676 117.903C358.711 125.396 364.827 132.767 370.051 140.706C379.413 136.458 389.13 133.043 399.091 130.499C400.097 130.215 401.163 130.215 402.169 130.499C403.25 131.077 404.085 132.026 404.518 133.172L413.834 150.629C412.457 147.388 396.094 159.417 384.794 168.53Z" fill="white"/>
<path d="M287.991 136.331C288.802 140.659 290.454 144.787 292.851 148.481C295.565 152.531 300.303 166.302 306.622 164.682C303.683 165.943 300.502 166.537 297.306 166.424C303.503 174.524 313.143 179.546 322.174 184.487C324.592 185.622 326.755 187.234 328.533 189.226C329.407 190.225 329.981 191.451 330.189 192.763C330.397 194.074 330.23 195.417 329.708 196.638C327.602 200.688 321.607 200.243 317.152 199.068C306.095 196.192 295.119 192.871 283.941 190.684C274.423 188.821 263.69 187.971 255.59 193.438C254.997 193.961 254.265 194.299 253.483 194.41C252.863 194.368 252.276 194.11 251.825 193.681C251.374 193.252 251.087 192.679 251.013 192.061C250.919 190.819 251.113 189.571 251.58 188.416C254.326 179.358 255.838 169.972 256.076 160.51C256.076 156.703 257.21 153.098 257.291 149.453C257.291 144.917 256.4 140.3 256.319 135.764C256.194 126.607 257.091 117.464 258.992 108.506C260.288 102.228 263.042 95.0594 269.36 93.6013C271.682 93.2138 274.066 93.509 276.223 94.4509C278.38 95.3928 280.217 96.9409 281.511 98.9071C283.93 102.862 285.322 107.359 285.561 111.989C285.948 120.14 286.759 128.265 287.991 136.331Z" fill="#D8DAE1"/>
<path d="M271.466 80.6422C283.616 74.8099 298.278 80.6422 307.593 84.0038C315.792 87.1168 324.213 89.6079 332.786 91.4562C334.041 91.6587 335.297 91.9017 336.512 92.1852C332.462 88.4996 324.766 87.6085 319.379 86.0289C311.279 83.6798 303.179 81.5737 294.876 79.6701C286.573 77.7665 278.108 76.592 271.466 80.6422Z" fill="white"/>
<path d="M306.183 58.4062C307.704 62.6097 310.756 66.084 314.728 68.134C318.701 70.1841 323.301 70.6588 327.608 69.4633C327.608 69.4633 323.274 81.8973 328.297 89.5117C329.228 90.9697 322.748 92.2658 322.383 92.3063C318.714 92.2235 315.101 91.3823 311.772 89.8357C306.61 87.3232 301.173 85.4203 295.571 84.1654C298.248 82.9864 300.386 80.848 301.565 78.1711C303.998 72.3433 304.398 65.866 302.7 59.7834C303.123 60.0241 303.609 60.1299 304.094 60.0864C304.579 60.043 305.039 59.8524 305.413 59.5403C305.785 59.2545 306.054 58.8569 306.183 58.4062Z" fill="#D68369"/>
<path d="M317.158 74.6475C329.309 78.4546 339.272 68.6127 344.052 53.9511C344.538 52.331 344.983 50.6704 345.348 48.9693C346.473 44.0685 347.016 39.0522 346.968 34.0242C346.725 9.72313 311.893 11.6267 311.893 11.6267C283.582 17.459 296.179 68.0862 317.158 74.6475Z" fill="#EC9C7D"/>
<path d="M336.19 8.14432C340.604 9.30042 344.438 12.0393 346.963 15.8396C348.012 17.9861 349.231 20.0449 350.609 21.9959C352.755 24.669 355.955 26.6131 357.008 29.8533C351.51 30.6457 345.907 29.5307 341.131 26.6941C340.72 27.3418 340.152 27.8748 339.479 28.2431C338.806 28.6114 338.051 28.8031 337.284 28.8002C335.742 28.7563 334.22 28.441 332.788 27.8687C331.998 27.5224 331.118 27.4373 330.277 27.6257C329.642 27.8683 329.073 28.2567 328.616 28.7597C327.165 29.9563 325.437 30.7688 323.589 31.1227C321.742 31.4765 319.836 31.3604 318.045 30.7848C315.899 30.0963 313.752 28.7192 311.727 29.3672C310.617 29.9469 309.693 30.8287 309.062 31.9108C308.432 32.9929 308.12 34.2313 308.163 35.483C308.163 36.9816 308.851 38.3991 308.892 39.9382C308.9 41.523 308.64 43.0978 308.122 44.5959C307.327 43.4962 306.339 42.5494 305.206 41.8013C304.615 41.4822 303.954 41.3152 303.282 41.3152C302.611 41.3152 301.95 41.4822 301.359 41.8013C300.869 42.0946 300.453 42.4964 300.143 42.9758C299.153 44.4557 298.716 46.2372 298.908 48.0074C299.101 49.7777 299.911 51.4235 301.196 52.6557C300.791 54.1543 300.386 55.6529 300.062 57.192C298.16 55.0503 296.664 52.5798 295.648 49.9016C294.765 46.896 293.571 43.9911 292.084 41.2343C291.072 39.9764 290.19 38.6195 289.451 37.1841C289.165 36.1185 288.8 35.076 288.357 34.0654C286.98 31.5138 285.077 29.0027 285.927 25.9651C286.778 22.9274 290.383 20.4568 289.654 17.2977C289.543 16.6908 289.381 16.0945 289.167 15.5156C289.121 14.6244 289.332 13.7388 289.775 12.964C291.476 9.82382 293.857 7.10331 296.744 5.00113C299.631 2.89895 302.951 1.4682 306.462 0.813445C313.529 -0.436989 320.775 -0.244111 327.766 1.38047C334.772 2.71703 341.739 4.62061 348.867 5.43064C349.156 5.39142 349.451 5.43536 349.716 5.55727C349.982 5.67919 350.207 5.87412 350.366 6.11923C350.446 6.36942 350.446 6.63852 350.366 6.88871C350.042 8.42778 348.584 9.39984 347.409 10.4529C346.234 11.5059 345.181 13.207 346.032 14.5031" fill="#2F3554"/>
<path d="M273.006 198.097C273.006 198.097 287.748 234.954 299.575 238.801C311.401 242.649 355.062 256.217 355.062 256.217L376.65 300C388.8 325.03 402.611 349.493 411.481 375.94C411.902 377.606 412.691 379.156 413.79 380.477C415.234 381.534 416.902 382.244 418.665 382.553C420.428 382.862 422.238 382.761 423.956 382.259C431.367 381.246 438.779 380.234 446.07 378.532C449.593 377.682 453.886 375.778 453.846 372.133C453.805 368.488 449.796 366.746 446.718 365.612L436.552 362.089C434.204 361.736 432.043 360.607 430.413 358.882C428.783 357.156 427.779 354.934 427.56 352.571C425.746 346.443 424.472 340.168 423.753 333.818C423.308 327.905 418.933 322.032 418.933 316.443L406.013 279.182L386.329 222.479V222.115L338.618 197.813L273.006 198.097Z" fill="#2F3554"/>
<path d="M252.561 205.347C252.561 205.347 249.766 238.923 261.633 242.811C273.5 246.7 317.283 260.065 317.283 260.065L334.172 306.035C341.098 324.989 350.373 344.349 355.435 363.912C356.455 369.475 357.051 375.107 357.217 380.76C357.224 382.29 357.614 383.794 358.351 385.135C359.23 386.098 360.3 386.87 361.492 387.4C362.684 387.929 363.973 388.206 365.277 388.213C376.24 389.59 387.256 390.548 398.327 391.088C399.703 391.33 401.12 391.132 402.377 390.521C403.508 389.721 404.291 388.518 404.564 387.16C405.135 384.995 405.096 382.715 404.453 380.571C403.81 378.427 402.587 376.502 400.919 375.009C397.355 371.85 392.332 370.959 388.323 368.529C379.655 362.98 378.926 347.468 376.537 337.991L367.667 302.268L350.616 234.549C350.372 233.496 349.562 226.449 348.509 226.044L300.798 201.743C300.798 201.743 273.095 191.293 252.561 205.347Z" fill="#4C506D"/>
<path d="M252.561 205.347C252.561 205.347 249.766 238.923 261.633 242.811C273.5 246.7 317.283 260.065 317.283 260.065L334.172 306.035C341.098 324.989 350.373 344.349 355.435 363.912C356.455 369.475 357.051 375.107 357.217 380.76C357.224 382.29 357.614 383.794 358.351 385.135C359.23 386.098 360.3 386.87 361.492 387.4C362.684 387.929 363.973 388.206 365.277 388.213C376.24 389.59 387.256 390.548 398.327 391.088C399.703 391.33 401.12 391.132 402.377 390.521C403.508 389.721 404.291 388.518 404.564 387.16C405.135 384.995 405.096 382.715 404.453 380.571C403.81 378.427 402.587 376.502 400.919 375.009C397.355 371.85 392.332 370.959 388.323 368.529C379.655 362.98 378.926 347.468 376.537 337.991L367.667 302.268L350.616 234.549C350.372 233.496 349.562 226.449 348.509 226.044L300.798 201.743C300.798 201.743 273.095 191.293 252.561 205.347Z" fill="#2F3554"/>
<path d="M260.567 95.5864C260.567 95.5864 265.873 146.335 284.868 159.134C303.864 171.932 349.347 118.105 349.347 118.105L334.807 106.319L297.302 125.436C297.302 125.436 291.956 82.5853 284.301 81.9778C276.646 81.3703 260.405 87.081 260.567 95.5864Z" fill="white"/>
<path d="M354.495 88.4184C356.145 86.8759 358.193 85.824 360.408 85.3808C362.422 85.2612 364.435 85.6221 366.281 86.4338C370.007 87.6489 374.138 89.755 374.867 93.5622C374.987 95.0484 374.735 96.5409 374.134 97.9055C373.533 99.27 372.602 100.464 371.425 101.379C369.197 103.323 366.524 104.7 364.256 106.644C361.056 109.398 358.667 113.368 354.698 114.745C353.018 115.312 351.235 115.506 349.473 115.312C343.6 114.785 337.322 109.844 340.725 103.769C344.406 97.9046 349.064 92.713 354.495 88.4184Z" fill="#EC9C7D"/>
<path d="M387.145 210.005C385.684 206.069 383.261 202.56 380.098 199.799C378.445 198.746 376.711 197.826 374.914 197.045C372.858 195.828 370.704 194.784 368.474 193.926C368.128 193.845 367.767 193.845 367.421 193.926C367.15 194.018 366.921 194.202 366.773 194.447C366.625 194.691 366.567 194.98 366.611 195.263C366.735 195.804 366.97 196.314 367.3 196.761C368.4 198.273 369.693 199.635 371.147 200.811C369.494 201.591 367.689 201.995 365.862 201.995C364.034 201.995 362.229 201.591 360.576 200.811C356.195 198.91 351.302 198.539 346.684 199.758C345.802 200.033 345.025 200.57 344.457 201.297C343.979 202.343 343.835 203.511 344.045 204.642C344.255 205.773 344.809 206.811 345.631 207.616C347.153 209.461 348.848 211.157 350.694 212.678C352.401 214.378 354.405 215.751 356.607 216.729C357.835 217.096 359.097 217.34 360.374 217.458L367.745 218.389C369.85 218.561 371.915 219.067 373.861 219.888C377.547 221.71 381.961 230.135 386.376 228.515C389.009 227.624 392.735 224.91 392.249 221.791C391.605 219.905 390.749 218.097 389.697 216.405C388.806 214.298 388.037 212.071 387.145 210.005Z" fill="url(#paint3_linear)"/>
<path d="M418.65 332.725C418.53 338.437 419.621 344.11 421.85 349.371H422.174C428.208 349.371 434.324 349.371 440.318 349.736C450.366 350.497 460.36 351.849 470.249 353.786C474.826 354.636 479.403 355.568 483.939 356.499L496.98 359.132C505.283 360.752 513.181 362.129 520.957 363.182C530.927 358.928 539.833 352.525 547.041 344.43L549.309 341.757C550.24 340.582 551.131 339.327 551.982 338.031C554.484 334.4 556.119 330.243 556.761 325.88C556.958 324.111 556.889 322.323 556.558 320.574C554.979 314.554 551.209 309.34 545.987 305.953L544.367 304.779C533.352 297.163 520.164 293.326 506.782 293.843H503.42C496.275 294.376 489.196 295.583 482.278 297.448C471.302 300.242 460.326 304.171 449.472 307.654C441.45 309.802 433.773 313.074 426.669 317.375C424.647 318.697 422.877 320.37 421.445 322.316C419.499 325.43 418.526 329.055 418.65 332.725Z" fill="#3E3E54"/>
<path d="M419.626 350.18C421.03 357.471 422.285 364.788 423.392 372.132C425.978 389.193 427.695 406.375 428.536 423.61C428.734 425.217 428.582 426.847 428.09 428.389C426.227 432.926 419.99 433.169 415.211 433.128C410.432 433.088 403.951 435.072 404.032 439.932C404.032 443.74 408.083 445.967 411.849 447.182C422.575 450.821 433.86 452.535 445.182 452.245C446.562 452.294 447.937 452.074 449.232 451.597C456.928 448.235 450.852 439.446 450.042 434.1C448.868 426.526 451.784 418.183 453.607 410.974C457.9 394.165 469.24 378.937 468.795 361.075C468.384 358.805 468.8 356.463 469.969 354.474C472.116 351.841 481.067 356.094 483.902 356.661L496.943 359.293C520.313 363.83 541.9 369.054 565.796 364.599C567.237 364.441 568.622 363.956 569.847 363.181C571.314 361.933 572.337 360.241 572.763 358.362C576.15 347.806 575.248 336.342 570.252 326.446C564.419 314.903 555.104 310.246 544.25 304.818C531.694 298.46 521.123 293.68 506.664 294.085H503.302C496.126 294.656 489.02 295.903 482.079 297.812C464.461 302.348 423.838 308.788 417.276 329.241C415.13 335.681 417.803 340.865 419.099 347.143L419.626 350.18Z" fill="#3E3E54"/>
<path d="M419.626 350.18C421.03 357.471 422.285 364.788 423.392 372.132C425.978 389.193 427.695 406.375 428.536 423.61C428.734 425.217 428.582 426.847 428.09 428.389C426.227 432.926 419.99 433.169 415.211 433.128C410.432 433.088 403.951 435.072 404.032 439.932C404.032 443.74 408.083 445.967 411.849 447.182C422.575 450.821 433.86 452.535 445.182 452.245C446.562 452.294 447.937 452.074 449.232 451.597C456.928 448.235 450.852 439.446 450.042 434.1C448.868 426.526 451.784 418.183 453.607 410.974C457.9 394.165 469.24 378.937 468.795 361.075C468.384 358.805 468.8 356.463 469.969 354.474C472.116 351.841 481.067 356.094 483.902 356.661L496.943 359.293C520.313 363.83 541.9 369.054 565.796 364.599C567.237 364.441 568.622 363.956 569.847 363.181C571.314 361.933 572.337 360.241 572.763 358.362C576.15 347.806 575.248 336.342 570.252 326.446C564.419 314.903 555.104 310.246 544.25 304.818C531.694 298.46 521.123 293.68 506.664 294.085H503.302C496.126 294.656 489.02 295.903 482.079 297.812C464.461 302.348 423.838 308.788 417.276 329.241C415.13 335.681 417.803 340.865 419.099 347.143L419.626 350.18Z" fill="url(#paint4_linear)"/>
<path d="M386.368 352.004C380.619 358.963 376.05 366.816 372.841 375.252C368.79 384.689 344.489 485.863 343.436 485.66L361.824 490.521C383.007 460.222 400.672 427.611 414.476 393.316C418.527 383.474 418.527 382.543 429.422 380.477C438.818 378.614 448.214 376.63 457.53 374.402C475.745 370.159 493.616 364.554 510.992 357.634C521.509 353.577 531.58 348.447 541.044 342.325C542.417 341.262 543.643 340.023 544.69 338.639C545.135 338.031 545.581 337.383 545.986 336.735C547.634 334.036 548.424 330.901 548.254 327.744C548.207 326.905 548.058 326.075 547.808 325.273C546.028 320.656 542.709 316.793 538.412 314.338C531.878 309.659 524.189 306.858 516.176 306.237C510.83 305.913 505.443 307.007 499.976 306.723C494.508 306.44 491.875 303.807 487.825 303.159C484.587 302.794 481.309 303.083 478.186 304.01C471.062 306.442 464.186 309.548 457.651 313.285L419.134 332.523H418.81L411.115 336.371C403.014 340.421 393.78 344.471 387.381 351.032L386.368 352.004Z" fill="#3E3E54"/>
<path d="M316.35 480.962C312.977 481.151 309.705 482.182 306.832 483.959C305.423 484.883 304.35 486.238 303.773 487.822C303.196 489.406 303.147 491.134 303.633 492.748C304.789 494.921 306.664 496.625 308.938 497.567C322.392 504.088 337.321 506.965 352.235 505.911C354.343 506.035 356.434 505.466 358.188 504.291C359.682 502.75 360.659 500.782 360.983 498.661C362.362 494.762 362.642 490.558 361.793 486.51C359.363 478.41 350.331 480.192 343.932 479.828C334.723 479.355 325.489 479.734 316.35 480.962Z" fill="#3E3E54"/>
<path d="M451.542 123.25C450.003 125.195 447.492 127.301 448.545 129.488C449.031 130.703 450.408 131.31 451.461 132.08C454.134 134.438 455.765 137.758 455.998 141.314C456.248 144.843 457.082 148.306 458.468 151.561C459.22 153.136 460.496 154.4 462.076 155.139C463.657 155.877 465.445 156.044 467.136 155.611C469.08 154.842 470.902 152.898 472.887 153.546C474.871 154.194 475.074 155.814 475.965 157.15C477.197 158.679 478.834 159.831 480.688 160.475C482.542 161.119 484.541 161.23 486.455 160.796C490.277 159.846 493.88 158.169 497.066 155.854C498.46 155.132 499.614 154.021 500.388 152.655C500.832 151.341 500.832 149.918 500.388 148.605C498.817 144.714 496.507 141.165 493.583 138.155C488.764 131.996 485.524 124.752 484.146 117.054C483.215 111.707 482.972 105.713 479.205 101.866C474.061 96.6003 463.004 97.8153 457.537 102.514C452.069 107.212 456.322 117.094 451.542 123.25Z" fill="url(#paint5_linear)"/>
<path d="M458.458 97.7334C458.548 98.6438 458.824 99.5261 459.268 100.326C460.645 102.594 464.534 104.052 466.883 105.348C469.37 106.707 471.24 108.968 472.107 111.666C473.606 116.607 471.459 122.399 473.484 127.219C474.173 128.15 475.753 127.219 476.279 126.368C476.806 125.518 477.049 124.019 477.98 123.331C479.56 122.196 481.787 123.655 482.678 125.396C483.633 127.443 483.77 129.777 483.063 131.922C482.355 134.067 480.856 135.861 478.871 136.939C479.236 138.478 481.342 138.924 482.921 138.559C484.421 137.953 486.006 137.584 487.62 137.466C491.305 137.79 493.168 142.933 496.854 143.095C500.54 143.257 503.253 137.385 506.007 134.995C508.762 132.605 513.743 132.119 515.12 128.758C515.768 127.138 515.404 125.072 516.74 123.938C517.756 123.33 518.918 123.008 520.102 123.007C521.423 122.674 522.639 122.013 523.638 121.086C524.636 120.158 525.384 118.994 525.813 117.701C526.613 115.043 526.514 112.196 525.529 109.6C525.238 108.59 524.695 107.67 523.95 106.927C522.727 106.119 521.346 105.581 519.899 105.348C513.46 103.525 508.883 98.017 504.063 93.1973C499.244 88.3775 492.885 84.2059 486.324 85.6639C484.949 83.9254 483.202 82.5171 481.212 81.5428C479.221 80.5685 477.037 80.053 474.821 80.0342C472.562 80.4695 470.422 81.3807 468.543 82.7072C465.325 84.5446 462.558 87.0767 460.443 90.1191C459.028 92.3985 458.336 95.0531 458.458 97.7334Z" fill="#DD8049"/>
<path d="M490.709 149.698C486.856 151.825 483.148 154.207 479.611 156.826C478.508 157.592 477.582 158.586 476.897 159.742C476.577 160.369 476.411 161.063 476.411 161.767C476.411 162.471 476.577 163.165 476.897 163.792C478.153 165.534 480.462 164.643 482.244 163.792C490.435 160.025 499.279 157.88 508.286 157.474C508.909 157.517 509.53 157.379 510.076 157.077C510.622 156.776 511.07 156.323 511.364 155.773C511.509 155.155 511.519 154.513 511.393 153.891C511.267 153.269 511.009 152.681 510.635 152.168C505.168 143.258 497.837 145.445 490.709 149.698Z" fill="white"/>
<path d="M475.022 265.25C471.269 257.195 468.168 248.851 465.747 240.301C465.18 238.438 464.289 231.107 461.292 231.512C459.713 231.755 456.877 239.167 455.986 240.665C448.267 253.66 437.938 264.913 425.651 273.715C423.58 275.499 421.002 276.589 418.279 276.833C416.427 276.585 414.643 275.966 413.036 275.013C411.428 274.059 410.029 272.791 408.923 271.285C396.482 258.163 385.396 243.82 375.833 228.474C382.21 223.11 388.861 218.081 395.76 213.407C401.189 222.071 409.273 228.748 418.806 232.443C422.856 221.265 425.043 206.603 431.807 197.004C436.383 190.483 441.284 183.922 445.334 176.956C446.429 175.055 447.793 173.322 449.385 171.812C451.711 170.122 454.357 168.923 457.161 168.288C478.238 162.12 499.66 157.197 521.316 153.546C524.554 152.804 527.891 152.585 531.198 152.898C540.433 154.275 546.508 162.983 551.166 171.083C575.467 213.326 592.801 261.281 590.088 309.964C590.056 312.604 589.633 315.224 588.832 317.74C587.236 321.518 584.629 324.783 581.299 327.177C569.963 335.331 556.253 339.517 542.296 339.085C521.64 339.085 494.382 333.05 478.991 318.186C470.243 309.802 478.991 304.739 483.042 296.436C488.428 285.784 479.68 274.768 475.022 265.25Z" fill="#8245DE"/>
<path d="M577.819 231.066C576.336 224.591 574.205 218.281 571.46 212.232C559.309 220.819 550.601 237.586 546.146 251.681C541.691 265.776 538.046 280.64 529.014 292.183L519.213 288.781L517.39 294.978C515.932 299.878 520.063 304.86 519.658 309.801C519.172 312.342 517.962 314.689 516.172 316.557C514.383 318.426 512.091 319.737 509.573 320.332C503.803 321.473 497.833 321.053 492.279 319.117C488.629 318.401 485.176 316.909 482.153 314.742C480.667 313.633 479.533 312.118 478.886 310.379C478.24 308.64 478.108 306.752 478.508 304.941C477.331 305.661 476.426 306.752 475.935 308.042C475.444 309.332 475.394 310.748 475.795 312.069C476.676 314.696 478.31 317.006 480.493 318.712C487.775 324.329 496.006 328.595 504.794 331.308C508.836 332.954 512.992 334.308 517.228 335.358C526.955 337.542 536.907 338.561 546.875 338.395C552.91 338.395 556.555 337.585 559.026 331.591C562.833 323.086 563.076 313.446 564.048 304.131C566.748 279.457 571.352 255.029 577.819 231.066Z" fill="url(#paint6_linear)"/>
<path d="M663.684 256.016C663.518 262.569 662.145 269.036 659.633 275.092C659.188 276.429 658.702 277.765 658.216 279.142C651.33 299.123 644.405 319.077 637.438 339.004C634.522 347.388 631.363 356.177 624.68 362.049C618.042 366.99 610.323 370.28 602.161 371.648C575.754 378.25 549.063 384.892 521.846 385.662C504.121 386.4 486.411 383.873 469.599 378.21C460.596 375.048 452.066 370.674 444.245 365.208C436.145 359.619 428.692 349.777 433.026 341.11C436.347 334.427 445.176 332.645 452.588 333.01C472.232 333.82 477.942 331.552 489.526 315.472C500.178 300.689 507.752 283.921 516.703 268.085C528.853 246.66 545.337 225.477 568.909 218.39C583.49 213.975 599.124 215.514 614.109 218.066C625.393 219.444 636.294 223.037 646.187 228.636C651.077 231.472 655.218 235.437 658.262 240.2C661.306 244.963 663.165 250.387 663.684 256.016Z" fill="#505365"/>
<path d="M658.144 279.1C651.258 299.081 644.333 319.035 637.366 338.962C634.45 347.346 631.291 356.135 624.608 362.007C617.97 366.948 610.251 370.238 602.089 371.606C575.682 378.208 548.991 384.85 521.774 385.62C504.049 386.358 486.339 383.831 469.527 378.168C465.802 374.834 462.31 371.248 459.078 367.435C456.85 364.721 454.622 360.954 456.445 357.998C458.267 355.041 461.751 355.122 464.869 355.082C477.677 354.703 490.19 351.153 501.288 344.749C512.386 338.344 521.721 329.287 528.457 318.387C533.804 308.6 538.329 298.385 541.985 287.849C550.693 266.221 562.843 244.633 582.77 232.402C588.916 228.187 596.264 226.084 603.709 226.407C608.274 227.039 612.706 228.407 616.832 230.458C633.681 237.991 656.483 252.45 658.225 273.106C658.38 275.102 658.353 277.109 658.144 279.1Z" fill="url(#paint7_linear)"/>
<path d="M591.348 373.632L628.407 512.958C628.581 513.653 628.613 514.375 628.502 515.083C628.392 515.79 628.14 516.468 627.762 517.076C627.384 517.684 626.888 518.21 626.303 518.623C625.718 519.036 625.057 519.327 624.357 519.479C623.927 519.541 623.491 519.541 623.061 519.479C621.876 519.47 620.728 519.067 619.797 518.334C618.866 517.6 618.204 516.579 617.917 515.429L581.02 376.305C580.659 374.947 580.848 373.501 581.545 372.281C582.243 371.06 583.393 370.163 584.746 369.785C585.432 369.602 586.148 369.556 586.852 369.65C587.556 369.745 588.234 369.978 588.847 370.335C589.461 370.693 589.998 371.168 590.427 371.734C590.856 372.3 591.169 372.945 591.348 373.632Z" fill="#8245DE"/>
<path d="M522.662 373.592L495.242 511.946C494.996 513.439 495.353 514.969 496.234 516.199C497.115 517.429 498.448 518.259 499.94 518.507H500.872C502.032 518.524 503.16 518.124 504.051 517.382C504.942 516.639 505.539 515.601 505.732 514.457L533.273 376.306C533.508 374.883 533.196 373.424 532.399 372.222C531.603 371.02 530.381 370.164 528.98 369.825C528.355 369.632 527.698 369.565 527.047 369.628C526.396 369.691 525.764 369.883 525.188 370.192C524.611 370.5 524.102 370.921 523.689 371.428C523.276 371.935 522.969 372.519 522.783 373.147L522.662 373.592Z" fill="#8245DE"/>
<path d="M566.479 374.16L590.294 513C590.39 513.771 590.334 514.554 590.127 515.303C589.921 516.053 589.569 516.754 589.091 517.367C588.613 517.981 588.019 518.494 587.343 518.877C586.667 519.26 585.922 519.507 585.15 519.602H584.502C583.352 519.615 582.235 519.213 581.357 518.469C580.479 517.725 579.899 516.689 579.723 515.552L555.868 376.752C555.668 375.311 556.014 373.847 556.839 372.648C557.663 371.449 558.906 370.602 560.323 370.272C561.558 369.907 562.888 370.048 564.019 370.663C565.151 371.279 565.992 372.318 566.358 373.552L566.479 374.16Z" fill="#8245DE"/>
<path d="M495.844 374.806L447.242 512.998C446.777 514.202 446.805 515.54 447.32 516.723C447.836 517.906 448.797 518.838 449.996 519.316C450.594 519.529 451.224 519.638 451.859 519.64C453.08 519.622 454.264 519.222 455.245 518.495C456.226 517.769 456.954 516.753 457.327 515.59L505.929 377.439C506.394 376.235 506.366 374.896 505.85 373.714C505.335 372.531 504.373 371.599 503.175 371.12H502.648C501.259 370.788 499.796 370.98 498.54 371.66C497.284 372.34 496.324 373.461 495.844 374.806Z" fill="#8245DE"/>
<path d="M411.121 128.029C411.25 126.666 411.802 125.377 412.7 124.344C413.915 123.331 415.738 123.655 417.317 123.736C424.081 124.02 429.468 118.471 435.017 114.664C435.283 114.457 435.61 114.343 435.948 114.34C436.313 114.34 436.556 114.785 436.758 115.109C439.836 120.78 437.528 127.867 434.247 133.376C430.966 138.884 426.714 143.42 420.841 143.663C417.207 143.018 413.512 142.773 409.825 142.934C407.475 143.461 405.774 144.919 404.681 142.084C402.413 137.021 409.986 132.485 411.121 128.029Z" fill="#EC9C7D"/>
<path d="M318.166 216.77C318.197 219.19 317.771 221.595 316.91 223.857C320.952 221.67 325.382 220.294 329.952 219.807L336.351 218.633C336.97 218.429 337.624 218.356 338.273 218.419C338.921 218.482 339.549 218.679 340.118 218.997C340.596 219.475 340.936 220.075 341.1 220.731C341.265 221.387 341.247 222.076 341.049 222.723C340.36 225.032 339.107 227.134 337.404 228.839C335.397 231.096 333.231 233.208 330.924 235.157C329.382 236.49 327.648 237.582 325.78 238.397C321.284 240.018 316.302 238.397 311.523 238.803C310.338 238.924 309.144 238.924 307.959 238.803C306.969 238.647 306.039 238.226 305.269 237.584C304.499 236.942 303.917 236.103 303.585 235.157C301.884 230.176 306.582 228.313 309.215 225.356C311.847 222.399 314.034 218.025 318.166 216.77Z" fill="url(#paint8_linear)"/>
<path d="M277.504 300.89C277.619 305.728 276.694 310.535 274.79 314.984H274.507C269.403 314.984 264.26 314.984 259.156 315.308C250.628 315.988 242.148 317.178 233.762 318.872C229.712 319.561 226.026 320.371 222.178 321.141L211.081 323.409C204.074 324.786 197.31 325.96 190.83 326.892C182.371 323.289 174.818 317.852 168.716 310.975C168.027 310.246 167.42 309.476 166.772 308.706C166.124 307.937 165.233 306.641 164.504 305.547C162.368 302.482 160.981 298.959 160.454 295.26C160.211 293.771 160.211 292.253 160.454 290.764C161.861 285.75 165.061 281.426 169.445 278.614L170.822 277.601C180.169 271.153 191.35 267.9 202.697 268.326H205.532C211.594 268.802 217.6 269.833 223.474 271.404C232.749 273.753 242.065 277.115 251.259 280.031C258.049 281.806 264.553 284.533 270.578 288.132C272.809 289.399 274.641 291.265 275.865 293.52C277.089 295.775 277.657 298.328 277.504 300.89Z" fill="#3E3E54"/>
<path d="M279.207 345.158C277.992 351.314 276.939 357.511 276.007 363.748C274.711 372.294 274.144 381.002 272.767 389.508C271.39 398.013 271.633 406.437 270.216 414.821C269.528 417.948 269.161 421.137 269.122 424.339C269.525 428.788 270.66 433.14 272.484 437.219C272.241 437.786 271.431 437.745 270.823 437.583C267.43 436.812 264.14 435.643 261.022 434.1C257.868 432.557 255.379 429.924 254.015 426.688C251.342 419.762 254.541 412.027 252.516 404.777C249.598 395.9 248.095 386.62 248.061 377.276C248.877 370.556 249.31 363.795 249.357 357.025C248.426 345.442 241.257 333.777 245.307 322.923C246.978 319.286 249.574 316.153 252.837 313.835C256.099 311.518 259.914 310.099 263.897 309.719C266.463 309.285 269.096 309.508 271.552 310.367C283.703 315.227 281.597 333.291 279.652 342.769L279.207 345.158Z" fill="url(#paint9_linear)"/>
<path d="M251.135 426.526C251.299 426.321 251.507 426.155 251.743 426.04C252.674 425.635 253.565 426.729 254.092 427.62C256.386 431.425 259.854 434.381 263.974 436.044C264.47 436.31 265.048 436.382 265.594 436.246C266.202 436.003 266.526 435.355 267.012 434.91C267.383 434.615 267.823 434.419 268.291 434.341C268.758 434.264 269.238 434.306 269.685 434.464C270.58 434.763 271.416 435.215 272.155 435.801C274.509 437.372 276.731 439.133 278.798 441.066C279.39 441.541 279.836 442.172 280.087 442.888C280.338 443.604 280.382 444.376 280.215 445.116C279.812 445.822 279.163 446.355 278.393 446.615C275.514 447.524 272.408 447.41 269.604 446.291C264.339 444.549 259.721 441.39 254.578 439.325C254.222 439.163 253.835 439.08 253.444 439.082L252.593 439.284C252.128 439.232 251.682 439.073 251.288 438.821C250.895 438.568 250.565 438.227 250.325 437.826C248.956 436.21 248.275 434.123 248.426 432.011C248.577 429.899 249.55 427.93 251.135 426.526Z" fill="#3E3E54"/>
<path d="M303.827 348.279C306.103 354.106 307.178 360.333 306.986 366.585C306.986 382.786 302.531 398.258 298.198 413.689C296.375 420.169 294.836 426.852 292.689 433.251C290.543 439.65 295.281 450.829 298.724 456.297C299.579 457.432 300.261 458.688 300.749 460.023C301.003 460.736 301.027 461.511 300.816 462.238C300.605 462.965 300.171 463.607 299.575 464.073C298.829 464.471 297.988 464.654 297.144 464.6C290.092 464.165 283.34 461.594 277.785 457.228C276.652 456.712 275.73 455.824 275.17 454.712C274.61 453.6 274.447 452.33 274.707 451.113C276.732 415.552 286.857 381.328 262.556 350.749C256.967 343.702 249.96 337.262 247.57 328.635C247.207 327.31 247.207 325.911 247.57 324.585C248.065 323.31 248.961 322.23 250.122 321.507C255.671 317.457 263.244 317.983 269.927 319.522C277.518 321.131 284.59 324.601 290.508 329.621C296.425 334.64 301.002 341.052 303.827 348.279Z" fill="url(#paint10_linear)"/>
<path d="M277.466 461.36C282.651 463.02 286.741 466.868 291.763 468.893C296.283 471.231 301.131 472.87 306.142 473.753C306.953 473.955 307.801 473.955 308.612 473.753C309.086 473.509 309.508 473.174 309.852 472.767C310.196 472.36 310.457 471.889 310.618 471.381C310.78 470.873 310.84 470.338 310.795 469.807C310.749 469.276 310.6 468.759 310.354 468.285C309.295 466.384 307.926 464.673 306.304 463.223C304.818 461.576 303.464 459.816 302.253 457.957C301.2 456.418 300.107 453.907 298.203 453.3C296.3 452.692 293.789 454.11 291.966 454.393C289.326 454.668 286.67 454.039 284.433 452.611C282.237 451.158 280.259 449.398 278.56 447.386C277.669 446.374 276.373 445.199 275.117 445.726C273.862 446.252 273.74 447.508 273.619 448.642C273.335 451.396 273.133 454.15 273.092 456.742C272.966 457.584 273.093 458.444 273.457 459.213C274.064 460.509 275.927 460.914 277.466 461.36Z" fill="#3E3E54"/>
<path d="M279.889 284.69C288.478 289.989 295.598 297.361 300.594 306.13C305.59 314.898 308.303 324.781 308.483 334.872C291.843 347.389 272.649 356.087 252.267 360.347C249.941 361.036 247.465 361.036 245.139 360.347C243.218 359.37 241.532 357.988 240.197 356.297C221.526 337.099 188.639 339.043 169.036 320.818C161.624 313.892 156.885 301.984 162.636 293.722C165.004 290.785 167.955 288.371 171.304 286.634C186.573 277.562 204.556 263.994 222.984 267.153C241.412 270.312 263.972 275.051 279.889 284.69Z" fill="#8245DE"/>
<path d="M287.101 349.129C277.745 339.125 276.044 324.463 274.951 310.814C272.265 313.127 269.248 315.025 266 316.444L264.42 312.191C264.299 311.759 264.026 311.385 263.651 311.138C263.227 311.017 262.778 311.017 262.355 311.138C249.07 315.638 235.149 317.977 221.124 318.064C215.732 318.508 210.334 317.292 205.652 314.581C203.386 313.136 201.764 310.874 201.123 308.264C200.482 305.654 200.871 302.898 202.209 300.567C190.874 303.655 179.327 305.902 167.661 307.291C167.193 307.275 166.726 307.353 166.288 307.519C165.849 307.686 165.449 307.939 165.11 308.263C164.219 309.437 165.11 311.098 165.879 312.313C175.234 325.469 189.336 334.473 205.207 337.424C209.621 338.193 233.031 346.942 243.562 360.672C244.301 361.542 245.271 362.186 246.36 362.529C247.449 362.873 248.613 362.903 249.718 362.616L287.101 349.129Z" fill="url(#paint11_linear)"/>
<path d="M244.616 105.713C243.399 104.741 242.031 103.974 240.566 103.445C238.252 102.406 235.697 102.027 233.181 102.348C230.666 102.67 228.288 103.68 226.31 105.267C223.11 108.548 222.907 113.651 222.259 118.187C221.078 124.719 218.295 130.856 214.159 136.049C211.681 138.61 209.716 141.62 208.367 144.918C208.002 146.037 208.002 147.243 208.367 148.361C209.059 149.498 210.036 150.433 211.202 151.075C213.822 152.939 216.759 154.311 219.87 155.125C221.854 155.692 224.406 157.839 226.35 157.191C228.294 156.542 229.266 154.193 231.048 153.14C232.168 152.715 233.363 152.52 234.56 152.569C235.758 152.618 236.933 152.909 238.015 153.424C239.106 153.922 240.309 154.124 241.503 154.01C242.698 153.896 243.841 153.471 244.819 152.776C245.419 152.046 245.873 151.207 246.155 150.305C246.977 147.863 247.521 145.336 247.775 142.772C247.623 140.104 248.412 137.467 250.003 135.32C250.445 134.966 250.839 134.558 251.178 134.105C252.069 132.565 250.57 130.783 249.841 129.163C249.301 127.645 249.081 126.032 249.193 124.425C249.031 118.228 250.287 110.087 244.616 105.713Z" fill="url(#paint12_linear)"/>
<path d="M199.541 147.876C199.217 148.312 198.994 148.814 198.889 149.347C198.784 149.879 198.799 150.428 198.933 150.954C199.193 151.406 199.573 151.777 200.03 152.027C200.487 152.278 201.005 152.397 201.525 152.372C209.162 152.696 216.661 154.512 223.599 157.718C225.097 158.447 227.082 159.217 228.135 157.718C228.433 157.179 228.589 156.573 228.589 155.956C228.589 155.34 228.433 154.734 228.135 154.194C227.548 153.218 226.761 152.376 225.826 151.724C222.815 149.53 219.678 147.515 216.43 145.689C210.395 142.125 204.198 140.262 199.541 147.876Z" fill="white"/>
<path d="M222.833 269.947C226.356 276.994 233.768 281.287 226.356 288.375C213.315 300.971 190.188 306.236 172.691 306.074C160.851 306.451 149.219 302.906 139.601 295.989C136.773 293.929 134.572 291.125 133.243 287.889C132.549 285.771 132.193 283.557 132.19 281.328C129.881 240.056 144.34 199.393 165.158 163.589C169.208 156.704 174.271 149.332 182.088 148.158C184.893 147.907 187.72 148.085 190.472 148.684C208.234 151.755 225.812 155.812 243.124 160.835C256.085 164.602 265.441 178.494 269.572 190.847C273.176 201.458 274.553 212.718 277.672 223.248C278.08 225.369 279.264 227.261 280.993 228.554C282.91 229.421 285.089 229.508 287.068 228.797C293.303 227.502 299.435 225.756 305.416 223.572C308.575 230.556 310.69 237.966 311.694 245.565C307.239 249.094 303.069 252.967 299.219 257.148C294.886 261.037 289.809 264.007 284.296 265.88C278.783 267.753 272.947 268.488 267.142 268.043C263.055 268 259.141 266.391 256.206 263.547C254.598 261.399 253.478 258.924 252.925 256.298C251.116 249.871 249.523 243.378 248.146 236.816C247.417 233.252 246.729 229.688 246.121 226.083C245.716 223.815 246.121 217.335 244.461 215.674C240.086 210.612 238.264 221.588 237.494 224.018C235.387 230.669 232.788 237.153 229.718 243.418C225.789 251.721 218.377 261.077 222.833 269.947Z" fill="white"/>
<path d="M249.75 106.968C250.613 104.349 250.711 101.54 250.034 98.8674C248.865 94.9429 246.83 91.3305 244.08 88.2964C239.121 81.6286 231.936 76.9586 223.829 75.1334C201.958 71.5692 176.523 93.8857 168.22 112.314C162.995 123.898 161.416 136.615 158.5 149.13C155.584 161.645 150.845 174.16 141.043 182.301C136.993 185.622 132.255 188.214 129.865 192.791C128.611 195.689 128.197 198.881 128.669 202.004C129.142 205.126 130.482 208.053 132.538 210.45C136.148 214.263 140.397 217.416 145.094 219.765C149.184 222.698 152.438 226.649 154.531 231.227C159.553 240.948 161.537 252.045 167.734 261.199L176.685 256.257C184.392 252.515 191.47 247.596 197.665 241.677C200.734 238.69 203.086 235.046 204.545 231.019C206.004 226.993 206.532 222.688 206.089 218.429C204.694 213.438 202.948 208.552 200.865 203.808C195.842 188.295 206.818 182.058 216.377 172.864C219.609 169.646 222.029 165.705 223.437 161.367C224.846 157.029 225.202 152.418 224.477 147.915C223.913 145.929 223.735 143.853 223.951 141.799C224.963 138.925 226.658 136.339 228.892 134.266C232.942 129.325 229.742 122.925 234.562 118.389C238.288 114.866 243.999 114.339 247.523 110.289C248.485 109.347 249.244 108.216 249.75 106.968Z" fill="#2F3554"/>
<path d="M142.431 214.704C143.67 209.212 145.475 203.865 147.818 198.746C158.024 205.996 165.517 220.212 169.284 232.201C173.051 244.189 176.129 256.704 183.824 266.627L192.127 263.751L193.666 269.017C194.881 273.067 191.398 277.401 191.762 281.572C192.162 283.734 193.183 285.732 194.701 287.322C196.219 288.911 198.168 290.024 200.308 290.523C205.204 291.454 210.258 291.091 214.97 289.47C218.056 288.867 220.973 287.595 223.516 285.744C224.751 284.829 225.699 283.581 226.252 282.147C226.804 280.712 226.937 279.15 226.634 277.644C227.621 278.272 228.376 279.206 228.785 280.302C229.194 281.398 229.236 282.597 228.903 283.719C228.128 285.949 226.721 287.905 224.852 289.349C218.774 294.051 211.92 297.656 204.601 300.001C201.142 301.383 197.614 302.586 194.03 303.605C185.787 305.422 177.36 306.278 168.919 306.157C163.776 306.157 160.819 305.468 158.429 300.406C155.835 292.911 154.468 285.047 154.379 277.117C152.004 256.037 148.009 235.171 142.431 214.704Z" fill="url(#paint13_linear)"/>
<path d="M108.004 329.04L56.8507 463.87C56.3648 465.203 56.424 466.673 57.0155 467.962C57.6069 469.251 58.6829 470.255 60.0098 470.756C60.4314 470.893 60.8655 470.988 61.3059 471.039C62.4707 471.159 63.6427 470.891 64.639 470.276C65.6354 469.66 66.4002 468.732 66.8141 467.637L118.008 332.847C118.261 332.196 118.382 331.501 118.364 330.803C118.346 330.105 118.189 329.417 117.903 328.78C117.616 328.143 117.206 327.569 116.696 327.092C116.185 326.616 115.585 326.245 114.93 326.002C114.279 325.749 113.584 325.628 112.886 325.646C112.188 325.664 111.5 325.821 110.863 326.108C110.226 326.394 109.652 326.805 109.176 327.315C108.699 327.825 108.328 328.425 108.085 329.08L108.004 329.04Z" fill="#8245DE"/>
<path d="M176.41 336.045L189.532 476.465C189.61 477.984 189.082 479.472 188.065 480.603C187.048 481.734 185.624 482.416 184.105 482.5H183.255C182.116 482.393 181.049 481.895 180.237 481.09C179.424 480.285 178.916 479.223 178.799 478.085L165.677 337.706C165.582 336.261 166.039 334.834 166.957 333.714C167.874 332.593 169.183 331.863 170.618 331.671C171.262 331.555 171.923 331.568 172.562 331.709C173.201 331.85 173.805 332.117 174.34 332.494C174.876 332.871 175.33 333.35 175.679 333.904C176.027 334.458 176.262 335.076 176.369 335.721C176.369 335.721 176.41 335.802 176.41 336.045Z" fill="#8245DE"/>
<path d="M132.793 332.159L94.8834 467.799C94.7023 468.549 94.6708 469.327 94.7906 470.09C94.9104 470.852 95.1793 471.583 95.5817 472.241C95.9842 472.899 96.5124 473.472 97.1361 473.926C97.7599 474.38 98.467 474.706 99.2171 474.887H99.9461C101.075 475.034 102.219 474.766 103.165 474.132C104.111 473.499 104.795 472.544 105.09 471.444L143.04 335.804C143.383 334.388 143.188 332.895 142.492 331.615C141.795 330.335 140.648 329.36 139.273 328.878C138.686 328.641 138.057 328.522 137.423 328.528C136.789 328.533 136.163 328.664 135.58 328.913C134.997 329.161 134.468 329.522 134.025 329.974C133.582 330.427 133.232 330.963 132.996 331.551C132.91 331.747 132.842 331.951 132.793 332.159Z" fill="#8245DE"/>
<path d="M202.941 339.854L237.287 482.298C237.652 483.523 237.515 484.842 236.908 485.966C236.3 487.09 235.271 487.927 234.047 488.293C233.393 488.433 232.716 488.433 232.062 488.293C230.87 488.152 229.75 487.65 228.852 486.853C227.954 486.057 227.322 485.004 227.04 483.837L192.614 341.352C192.441 340.741 192.392 340.101 192.468 339.47C192.544 338.839 192.743 338.229 193.056 337.676C193.368 337.123 193.787 336.637 194.288 336.246C194.789 335.855 195.362 335.567 195.975 335.398H196.664C198.073 335.252 199.487 335.623 200.642 336.443C201.797 337.263 202.615 338.475 202.941 339.854Z" fill="#8245DE"/>
<path d="M193.054 231.592C183.171 209.032 168.996 186.311 146.234 176.793C132.22 170.96 116.505 170.839 101.317 171.892C89.9528 172.113 78.7405 174.548 68.3083 179.061C63.1324 181.398 58.5923 184.942 55.0687 189.396C51.5451 193.849 49.1408 199.083 48.0574 204.658C47.5708 211.202 48.2986 217.779 50.204 224.058L65.7567 289.833C67.7818 298.501 70.0499 307.532 76.0847 314.134C82.1775 319.751 89.5227 323.834 97.5101 326.042C123.107 335.276 148.988 344.632 175.962 348.196C202.936 351.76 231.571 349.168 255.265 335.803C263.729 331.024 272.356 322.032 268.954 312.96C266.281 305.953 257.776 303.28 250.283 302.834C230.68 301.619 225.253 298.784 215.37 281.611C206.338 265.694 200.547 248.278 193.054 231.592Z" fill="#505365"/>
<defs>
<linearGradient id="paint0_linear" x1="446.198" y1="-375.53" x2="422.261" y2="643.94" gradientUnits="userSpaceOnUse">
<stop offset="0.01"/>
<stop offset="0.08" stop-opacity="0.69"/>
<stop offset="0.21" stop-opacity="0.32"/>
<stop offset="1" stop-opacity="0"/>
</linearGradient>
<linearGradient id="paint1_linear" x1="367548" y1="116366" x2="352231" y2="115870" gradientUnits="userSpaceOnUse">
<stop offset="0.01"/>
<stop offset="0.08" stop-opacity="0.69"/>
<stop offset="0.21" stop-opacity="0.32"/>
<stop offset="1" stop-opacity="0"/>
</linearGradient>
<linearGradient id="paint2_linear" x1="14719.1" y1="-24906.8" x2="8930.15" y2="-25998.9" gradientUnits="userSpaceOnUse">
<stop offset="0.01"/>
<stop offset="0.08" stop-opacity="0.69"/>
<stop offset="0.21" stop-opacity="0.32"/>
<stop offset="1" stop-opacity="0"/>
</linearGradient>
<linearGradient id="paint3_linear" x1="392.289" y1="211.301" x2="343.849" y2="211.301" gradientUnits="userSpaceOnUse">
<stop stop-color="#E5C5D5"/>
<stop offset="0.42" stop-color="#EAD4D1"/>
<stop offset="1" stop-color="#F0E9CB"/>
</linearGradient>
<linearGradient id="paint4_linear" x1="431.857" y1="220.534" x2="524.485" y2="492.666" gradientUnits="userSpaceOnUse">
<stop stop-opacity="0"/>
<stop offset="0.99"/>
</linearGradient>
<linearGradient id="paint5_linear" x1="-42337.2" y1="82976.4" x2="-41659.8" y2="82976.4" gradientUnits="userSpaceOnUse">
<stop stop-color="#E5C5D5"/>
<stop offset="0.42" stop-color="#EAD4D1"/>
<stop offset="1" stop-color="#F0E9CB"/>
</linearGradient>
<linearGradient id="paint6_linear" x1="191757" y1="-14829.5" x2="183670" y2="-21385.7" gradientUnits="userSpaceOnUse">
<stop offset="0.01"/>
<stop offset="0.08" stop-opacity="0.69"/>
<stop offset="0.21" stop-opacity="0.32"/>
<stop offset="1" stop-opacity="0"/>
</linearGradient>
<linearGradient id="paint7_linear" x1="43368.1" y1="-23479.3" x2="53497.7" y2="-23479.3" gradientUnits="userSpaceOnUse">
<stop offset="0.01"/>
<stop offset="0.08" stop-opacity="0.69"/>
<stop offset="0.21" stop-opacity="0.32"/>
<stop offset="1" stop-opacity="0"/>
</linearGradient>
<linearGradient id="paint8_linear" x1="6920.9" y1="-3577.55" x2="7276.86" y2="-3577.55" gradientUnits="userSpaceOnUse">
<stop stop-color="#E5C5D5"/>
<stop offset="0.42" stop-color="#EAD4D1"/>
<stop offset="1" stop-color="#F0E9CB"/>
</linearGradient>
<linearGradient id="paint9_linear" x1="60898.6" y1="-20995.1" x2="56720.3" y2="-17445" gradientUnits="userSpaceOnUse">
<stop stop-color="#E5C5D5"/>
<stop offset="0.42" stop-color="#EAD4D1"/>
<stop offset="1" stop-color="#F0E9CB"/>
</linearGradient>
<linearGradient id="paint10_linear" x1="10066.7" y1="-19303.9" x2="12445.6" y2="-18202.7" gradientUnits="userSpaceOnUse">
<stop stop-color="#E5C5D5"/>
<stop offset="0.42" stop-color="#EAD4D1"/>
<stop offset="1" stop-color="#F0E9CB"/>
</linearGradient>
<linearGradient id="paint11_linear" x1="17250.4" y1="-8158.57" x2="19570.2" y2="-11178" gradientUnits="userSpaceOnUse">
<stop offset="0.01"/>
<stop offset="0.08" stop-opacity="0.69"/>
<stop offset="0.21" stop-opacity="0.32"/>
<stop offset="1" stop-opacity="0"/>
</linearGradient>
<linearGradient id="paint12_linear" x1="126768" y1="72367.7" x2="126303" y2="72367.7" gradientUnits="userSpaceOnUse">
<stop stop-color="#E5C5D5"/>
<stop offset="0.42" stop-color="#EAD4D1"/>
<stop offset="1" stop-color="#F0E9CB"/>
</linearGradient>
<linearGradient id="paint13_linear" x1="32610.5" y1="-13803.4" x2="38442.2" y2="-18509.9" gradientUnits="userSpaceOnUse">
<stop offset="0.01"/>
<stop offset="0.08" stop-opacity="0.69"/>
<stop offset="0.21" stop-opacity="0.32"/>
<stop offset="1" stop-opacity="0"/>
</linearGradient>
</defs>
</svg>
