<svg width="764" height="578" viewBox="0 0 764 578" fill="none" xmlns="http://www.w3.org/2000/svg">
<path d="M318.683 205.122C318.683 205.122 245.625 213.672 219.554 233.707C193.482 253.742 198.544 284.437 283.481 268.313C368.419 252.189 318.683 205.122 318.683 205.122Z" fill="#7B48DD"/>
<path opacity="0.08" d="M318.683 205.122C318.683 205.122 245.625 213.672 219.554 233.707C193.482 253.742 198.544 284.437 283.481 268.313C368.419 252.189 318.683 205.122 318.683 205.122Z" fill="black"/>
<path d="M289.765 154.795C292.316 154.482 294.792 153.723 297.081 152.551C300.901 150.634 309.114 148.717 308.942 156.769C308.827 161.888 300.901 155.83 300.366 162.713C299.831 169.595 300.805 178.3 286.652 176.133C273.741 174.063 277.331 156.386 289.765 154.795Z" fill="#F4A28C"/>
<path d="M517.246 197.779C571.298 197.779 615.115 160.208 615.115 113.862C615.115 67.5159 571.298 29.9451 517.246 29.9451C463.195 29.9451 419.378 67.5159 419.378 113.862C419.378 160.208 463.195 197.779 517.246 197.779Z" fill="#24285B"/>
<path d="M373.081 536.072C487.417 536.072 580.105 522.862 580.105 506.566C580.105 490.271 487.417 477.06 373.081 477.06C258.744 477.06 166.056 490.271 166.056 506.566C166.056 522.862 258.744 536.072 373.081 536.072Z" fill="black"/>
<path opacity="0.58" d="M458.915 473.283C458.915 473.283 439.548 468.068 435.27 450.047C435.27 450.047 465.218 443.835 466.192 474.97L458.915 473.283Z" fill="#7B48DD"/>
<path opacity="0.73" d="M461.284 471.347C461.284 471.347 447.685 449.97 459.489 429.858C459.489 429.858 482.409 444.295 472.324 471.347H461.284Z" fill="#7B48DD"/>
<path d="M464.761 471.347C464.761 471.347 471.809 448.666 493.411 444.295C493.411 444.295 497.517 458.981 479.544 471.347H464.761Z" fill="#7B48DD"/>
<path d="M450.74 470.906L454.77 497.805H479.467L482.981 470.906H450.74Z" fill="#24285B"/>
<path d="M329.361 490.788C329.361 490.788 326.63 498.878 319.41 499.607C312.19 500.336 310.395 507.487 316.946 509.193C323.497 510.899 340.114 502.234 340.114 502.234L339.408 490.73L329.361 490.788Z" fill="#7B48DD"/>
<path d="M405.302 481.757C405.302 481.757 407.422 490.04 401.768 494.622C396.115 499.204 398.54 506.125 404.958 504.016C411.376 501.907 420.563 485.458 420.563 485.458L414.298 477.06L405.302 481.757Z" fill="#7B48DD"/>
<path d="M343.188 149.618C343.188 149.618 350.141 161.869 351.879 171.359C352.044 172.278 352.026 173.221 351.827 174.134C351.629 175.046 351.252 175.91 350.72 176.676C350.187 177.442 349.509 178.095 348.725 178.597C347.941 179.099 347.065 179.441 346.149 179.603C341.393 180.409 334.689 180.121 330.181 174.005L321.262 164.572C319.673 162.492 318.765 159.969 318.662 157.349C318.56 154.73 319.267 152.143 320.689 149.944C325.521 141.374 339.33 141.93 343.188 149.618Z" fill="#F4A28C"/>
<path d="M324.528 166.643L324.719 212.867L350.084 210.931L340.018 178.913L324.528 166.643Z" fill="#F4A28C"/>
<path d="M347.181 157.574L352.911 160.872C353.249 161.055 353.535 161.322 353.741 161.649C353.946 161.975 354.064 162.349 354.083 162.735C354.103 163.121 354.022 163.505 353.85 163.85C353.678 164.195 353.42 164.49 353.102 164.706L348.651 167.889L347.181 157.574Z" fill="#F4A28C"/>
<path opacity="0.31" d="M340.304 179.814C337.197 179.505 334.232 178.352 331.728 176.478C331.728 176.478 330.85 186.563 343.188 188.979L340.304 179.814Z" fill="#CE8172"/>
<path d="M520.819 61.4831C531.018 62.0775 539.021 65.3176 544.828 71.0692C547.567 73.7351 549.688 76.9745 551.038 80.5567C552.388 84.1389 552.935 87.9759 552.64 91.7944C552.592 96.7247 551.277 101.559 548.82 105.828C546.413 109.51 545.191 111.772 541.485 114.303C538.703 116.346 535.721 118.1 532.585 119.537C530.484 120.629 529.07 121.243 528.516 121.626C522.786 124.713 519.558 127.666 519.253 132.996C519.062 136.408 517.916 137.309 514.65 137.118L509.206 136.792C505.94 136.6 504.909 135.584 505.1 132.171C505.787 120.553 510.83 115.242 519.482 110.123C519.348 110.123 525.002 107.036 525.212 106.902C526.976 105.871 528.644 104.684 530.197 103.355C531.698 101.89 532.984 100.218 534.017 98.3897C534.917 96.1881 535.471 93.8597 535.66 91.4877C536.137 83.1669 530.331 77.2043 519.463 76.5717C508.977 75.9582 503.171 79.8501 498.854 88.2284C497.154 91.5643 496.046 92.0628 492.837 90.7591L486.439 88.0558C483.364 86.9247 482.619 84.8157 483.918 82.0166C490.717 67.2923 503.018 60.4478 520.819 61.4831ZM512.167 144.403C518.699 144.786 520.743 147.106 520.361 153.644V154.89C519.979 161.562 517.687 163.499 511.154 163.115H510.066C503.533 162.732 501.49 160.565 501.872 153.874V152.647C502.254 146.09 504.546 144.039 511.078 144.422L512.167 144.403Z" fill="#FFD200"/>
<path d="M340.095 203.358H365.517C365.517 203.358 446.94 210.394 448.239 250.809C449.538 291.224 396.879 371.958 396.879 371.958H309.134C309.134 371.958 208.191 203.358 340.095 203.358Z" fill="#7B48DD"/>
<path opacity="0.08" d="M391.34 240.878C391.34 240.878 372.966 267.182 380.644 287.658C388.322 308.134 391.741 340.937 332.569 309.169L323.974 281.638L300.863 273.662L291.562 311.642L307.491 317.068C311.153 318.258 314.205 320.842 315.99 324.266C317.776 327.689 318.153 331.678 317.041 335.378C314.921 341.896 309.687 348.338 297.425 349.584L309.21 371.881H396.955L408.587 352.882L440.561 282.386L391.34 240.878Z" fill="black"/>
<path d="M324.566 175.884C324.566 175.884 318.683 165.071 311.654 160.297C304.625 155.523 310.375 140.166 322.732 137.424C331.977 135.354 337.267 132.305 337.344 127.071C337.378 126.516 337.562 125.981 337.874 125.521C338.187 125.062 338.618 124.696 339.121 124.462C339.624 124.229 340.18 124.136 340.732 124.193C341.283 124.251 341.808 124.457 342.252 124.79C346.493 127.992 350.828 133.226 348.727 140.473C347.904 143.102 346.415 145.471 344.406 147.349C342.397 149.228 339.938 150.551 337.267 151.19L328.94 153.414C328.94 153.414 340.094 168.503 324.566 175.884Z" fill="#24285B"/>
<path d="M334.632 166.835C334.632 166.835 332.282 161.946 328.768 164.035C325.254 166.125 328.596 173.2 333.925 171.551L334.632 166.835Z" fill="#F4A28C"/>
<path d="M439.415 137.252L391.111 174.906L452.059 161.888L439.415 137.252Z" fill="#24285B"/>
<path d="M391.76 253.09C385.037 228.435 414.508 210.087 433.78 226.92C442.967 234.973 450.798 245.326 453.167 258.19C459.985 295.154 481.817 327.325 448.392 349.22C414.967 371.115 335.854 322.532 335.854 322.532L346.741 302.689C346.741 302.689 386.336 318.429 410.898 317.049C427.84 316.109 401.253 287.907 391.76 253.09Z" fill="#7B48DD"/>
<path d="M341.168 275.292L317.296 269.57L308.1 308.228L331.972 313.949L341.168 275.292Z" fill="#FFD200"/>
<path opacity="0.3" d="M391.76 253.09C385.037 228.435 414.508 210.087 433.78 226.92C442.967 234.973 450.798 245.326 453.167 258.19C459.985 295.154 481.817 327.325 448.392 349.22C414.967 371.115 335.854 322.532 335.854 322.532L346.741 302.689C346.741 302.689 386.336 318.429 410.898 317.049C427.84 316.109 401.253 287.907 391.76 253.09Z" fill="white"/>
<path d="M345.29 305.181C344.393 301.409 342.612 297.905 340.095 294.963C335.816 289.824 334.365 287.543 328.463 287.658C322.561 287.773 321.969 309.533 338.261 317.988L345.29 305.181Z" fill="#F4A28C"/>
<path d="M396.879 371.958C396.879 371.958 379.307 445.196 414.489 475.987L402.093 487.624C402.093 487.624 356.482 461.052 350.122 388.044L396.879 371.958Z" fill="#24285B"/>
<path d="M279.318 163.077L286.653 176.095L233.02 260.932C224.731 274.026 204.084 268.601 203.893 253.09C203.893 245.939 206.051 237.331 212.411 227.169C235.446 190.244 279.318 163.077 279.318 163.077Z" fill="#7B48DD"/>
<path d="M273.855 138.116L273.349 141.917L293.245 144.589L293.752 140.788L273.855 138.116Z" fill="#C9C9C9"/>
<path d="M289.268 113.881L286.33 116.332L299.161 131.829L302.099 129.378L289.268 113.881Z" fill="#C9C9C9"/>
<path d="M314.41 107.644L312.556 127.708L316.359 128.062L318.214 107.998L314.41 107.644Z" fill="#C9C9C9"/>
<path d="M309.133 371.958C309.133 371.958 291.103 440.326 326.648 490.73L341.011 490.04C341.011 490.04 320.192 421.844 351.115 396.901L396.955 371.977L309.133 371.958Z" fill="#24285B"/>
</svg>
