<svg width="116" height="116" viewBox="0 0 116 116" fill="none" xmlns="http://www.w3.org/2000/svg">
<path d="M10.2256 52.1373C10.2254 51.7562 10.3395 51.3715 10.581 51.0397C10.6646 50.9249 10.7596 50.8236 10.862 50.7338C10.8617 50.7336 10.8615 50.7334 10.8611 50.733L17.302 45.0961C15.9142 43.9786 15.024 42.2671 15.024 40.3508V37.2881C15.024 29.0553 21.7219 22.3574 29.9547 22.3574C38.1875 22.3574 44.8854 29.0553 44.8854 37.2881C44.8854 45.5209 38.1875 52.2188 29.9547 52.2188C28.9239 52.2188 28.0883 51.3833 28.0883 50.3525C28.0883 49.3217 28.9239 48.4862 29.9547 48.4862C36.1293 48.4862 41.1527 43.4627 41.1527 37.2881C41.1527 31.1135 36.1293 26.0901 29.9547 26.0901C23.7801 26.0901 18.7566 31.1135 18.7566 37.2881V40.3508C18.7566 41.6516 19.8149 42.7098 21.1159 42.7098C22.4167 42.7098 23.4749 41.6516 23.4749 40.3508V37.7719V32.4062C23.4749 31.8929 23.6862 31.4024 24.0591 31.0499C25.66 29.5365 27.7537 28.703 29.9547 28.703C34.6885 28.703 38.5398 32.5543 38.5398 37.2881C38.5398 42.0219 34.6885 45.8733 29.9547 45.8733C28.353 45.8733 26.809 45.4298 25.4693 44.606C24.3982 45.7016 22.9188 46.3947 21.2796 46.4384C21.1793 46.6135 21.0506 46.7759 20.8902 46.9162L15.0777 52.0031L30.0069 62.8642V57.9987C30.0069 56.9679 30.8425 56.1324 31.8733 56.1324C32.9041 56.1324 33.7396 56.9679 33.7396 57.9987V65.5798L47.6726 75.716L56.904 69.0002C57.5586 68.5239 58.4454 68.5239 59.1 69.0002L68.3314 75.716L100.845 52.0619L90.2253 42.7677C89.4496 42.0889 89.3712 40.9098 90.05 40.1341C90.729 39.3585 91.908 39.2801 92.6836 39.9589L105.092 50.6901C105.093 50.6909 105.093 50.6914 105.094 50.6922C105.513 51.0345 105.78 51.5546 105.78 52.1375V103.91C105.78 104.941 104.945 105.777 103.914 105.777H12.0901C11.0593 105.777 10.2237 104.941 10.2237 103.91V52.1375C10.2243 52.1375 10.2251 52.1373 10.2256 52.1373ZM27.2074 37.7721V40.351V41.2869C28.0114 41.8414 28.964 42.1406 29.9545 42.1406C32.6301 42.1406 34.807 39.9637 34.807 37.2881C34.807 34.6125 32.6301 32.4356 29.9545 32.4356C28.9638 32.4356 28.0114 32.7348 27.2074 33.2893V37.7721ZM102.048 55.8031L71.5038 78.024L102.048 100.245V55.8031ZM98.1761 102.044L58.002 72.8172L17.828 102.044H98.1761ZM13.9564 100.245L44.5002 78.024L13.9564 55.8031V100.245Z" fill="white"/>
<path d="M42.8199 22.7704L56.7799 10.6765C57.4891 10.0619 58.5283 10.0791 59.2183 10.6742C59.2189 10.6737 59.2192 10.6733 59.2198 10.6727L65.9386 16.4584C66.7197 17.131 66.8076 18.3094 66.1349 19.0905C65.7658 19.5192 65.2445 19.739 64.7199 19.739C64.2886 19.739 63.8552 19.5905 63.5029 19.287L58.0054 14.553L48.9964 22.3577H84.1307C85.1615 22.3577 85.9971 23.1933 85.9971 24.224V51.0935C85.9971 52.1243 85.1615 52.9599 84.1307 52.9599C83.1 52.9599 82.2644 52.1243 82.2644 51.0935V26.0906H44.042C44.0482 26.0751 44.0528 26.0616 44.0588 26.0465C44.0536 26.0465 44.0482 26.0473 44.0429 26.0473C43.5204 26.0473 43.0006 25.8289 42.6314 25.403C41.9566 24.624 42.0409 23.4452 42.8199 22.7704Z" fill="white"/>
<path d="M57.7419 41.2021H76.4008C77.4315 41.2021 78.2671 42.0377 78.2671 43.0685C78.2671 44.0993 77.4315 44.9348 76.4008 44.9348H57.7419C56.7111 44.9348 55.8755 44.0993 55.8755 43.0685C55.8755 42.0377 56.7111 41.2021 57.7419 41.2021Z" fill="white"/>
<path d="M58.0019 31.8701H76.4008C77.4315 31.8701 78.2671 32.7057 78.2671 33.7365C78.2671 34.7672 77.4315 35.6028 76.4008 35.6028H58.0019C56.9711 35.6028 56.1355 34.7672 56.1355 33.7365C56.1355 32.7057 56.9711 31.8701 58.0019 31.8701Z" fill="white"/>
<path d="M82.8112 57.3007C83.1584 56.9536 83.6399 56.7539 84.1307 56.7539C84.6216 56.7539 85.1031 56.9536 85.4502 57.3007C85.7974 57.6479 85.9971 58.1294 85.9971 58.6202C85.9971 59.113 85.7974 59.5926 85.4502 59.9397C85.1031 60.2889 84.6216 60.4866 84.1307 60.4866C83.6399 60.4866 83.1584 60.2888 82.8112 59.9397C82.4641 59.5926 82.2644 59.113 82.2644 58.6202C82.2644 58.1294 82.4641 57.6479 82.8112 57.3007Z" fill="white"/>
<path d="M45.3874 50.4014H49.0433C50.0741 50.4014 50.9097 51.2369 50.9097 52.2677C50.9097 53.2985 50.0741 54.134 49.0433 54.134H45.3874C44.3566 54.134 43.521 53.2985 43.521 52.2677C43.521 51.2369 44.3566 50.4014 45.3874 50.4014Z" fill="white"/>
<path d="M57.2904 50.4014H57.3109C58.3417 50.4014 59.1772 51.2369 59.1772 52.2677C59.1772 53.2985 58.3417 54.134 57.3109 54.134H57.2904C56.2598 54.134 55.424 53.2985 55.424 52.2677C55.424 51.2369 56.2596 50.4014 57.2904 50.4014Z" fill="white"/>
<path d="M66.2137 50.4014H76.41C77.4408 50.4014 78.2764 51.2369 78.2764 52.2677C78.2764 53.2985 77.4408 54.134 76.41 54.134H66.2137C65.1829 54.134 64.3473 53.2985 64.3473 52.2677C64.3473 51.2369 65.1829 50.4014 66.2137 50.4014Z" fill="white"/>
</svg>
