<svg width="116" height="116" viewBox="0 0 116 116" fill="none" xmlns="http://www.w3.org/2000/svg">
<path d="M53.5919 83.0688C52.8619 83.7964 52.8619 84.9781 53.5919 85.7071C54.3233 86.4354 55.507 86.4354 56.2362 85.7071C56.9676 84.9781 56.9676 83.7964 56.2362 83.0688C55.507 82.339 54.3233 82.339 53.5919 83.0688Z" fill="white"/>
<path d="M101.562 79.8274L87.3606 67.7789C87.2949 67.7235 87.2255 67.6724 87.1531 67.6265C83.4274 65.2601 78.6438 65.7843 75.5201 68.9001L67.7772 76.6248C67.2409 77.1606 66.4409 77.3188 65.7394 77.0302C56.9962 73.4215 49.8137 67.9888 44.3915 60.8845C40.2566 55.4672 38.766 51.1623 38.5695 50.5558C38.5461 50.426 38.5088 50.297 38.4562 50.1708C38.1662 49.471 38.3247 48.6742 38.8625 48.1391L46.6047 40.4122C49.7283 37.2956 50.2529 32.5227 47.8811 28.8054C47.8621 28.7755 47.8424 28.7464 47.8219 28.7172L37.5663 14.4977C34.3396 9.50314 27.3113 8.7486 23.0932 12.9565L21.5427 14.5035C21.542 14.5049 21.5405 14.5064 21.5391 14.5071L16.0035 20.0302C9.40264 26.6169 8.32271 36.5141 12.8814 48.6537C16.7861 59.0525 24.6027 70.4332 34.8913 80.6986C45.4232 91.2067 57.138 99.1501 67.8773 103.066C78.5071 106.94 89.8142 107.418 97.8172 99.4322L103.038 94.2241C107.237 90.0337 106.504 83.0672 101.562 79.8274ZM85.043 70.711L99.2318 82.7493C99.2968 82.8047 99.3663 82.8558 99.4386 82.9017C102.469 84.827 102.928 89.0554 100.392 91.5851L100.005 91.9722L75.8044 73.8939L78.1652 71.5392C80.0101 69.6977 82.8217 69.3645 85.043 70.711ZM34.4412 16.5484C34.4602 16.5783 34.4799 16.6082 34.5004 16.6366L44.7517 30.8511C46.1443 33.0753 45.8221 35.9148 43.9596 37.7731L41.6719 40.0564L25.2991 16.0337L25.7382 15.5956C28.2846 13.0549 32.5188 13.5354 34.4412 16.5484ZM69.1604 99.5598C58.9223 95.8272 47.6912 88.1915 37.5363 78.0595C27.6168 68.1631 20.1047 57.2547 16.3835 47.3444C13.5901 39.9055 11.7159 29.5862 18.6485 22.67L22.6066 18.7201L38.9794 42.7428L36.2182 45.4993C34.6473 47.0638 34.1533 49.3791 34.9373 51.4408C35.5277 53.8582 38.2443 58.8761 40.9851 62.5737C45.0184 68.0151 52.3389 75.5378 64.3095 80.4791C66.4131 81.3474 68.8119 80.8706 70.4223 79.2646L73.1323 76.5599L97.3328 94.6382L95.1722 96.7932C87.7406 104.209 76.9252 102.391 69.1604 99.5598Z" fill="white"/>
<path d="M50.0822 78.6136C48.1065 76.8851 44.6891 73.9122 42.8895 72.0648C38.4762 67.5398 33.846 62.0547 31.0928 58.0917C30.5047 57.2446 29.3392 57.0332 28.4902 57.6208C27.6412 58.2076 27.43 59.3704 28.0182 60.2176C31.4903 65.2157 36.5919 70.9589 40.2079 74.6667C42.1077 76.6176 45.5542 79.6168 47.6154 81.4196C48.3907 82.0976 49.5722 82.0233 50.2554 81.2468C50.9363 80.4726 50.8589 79.2931 50.0822 78.6136Z" fill="white"/>
</svg>
