<svg width="78" height="70" fill="none" xmlns="http://www.w3.org/2000/svg"><path d="M77.4.58A2.13 2.13 0 0 0 75.86 0c-1 0-4.05 0-22.76 15.46A562.62 562.62 0 0 0 28.94 36.7h-.02v.02a383.8 383.8 0 0 0-6.13 5.83C11.11 43.92 9.6 51.15 8.38 56.97c-1.05 5-1.8 7.62-6.07 7.95-.66.06-1.2.54-1.3 1.17-.1.62.26 1.25.86 1.5.25.1 6 2.41 12.74 2.41 7.4 0 16.8-2.81 19.85-15.99a531.38 531.38 0 0 0 28.95-31.1c4.8-5.63 8.5-10.27 10.98-13.8C77.93 4.1 78.71 1.87 77.4.59ZM29.9 39.62l7.58 7.41c-1.5 1.52-2.95 2.98-4.34 4.35l-7.69-7.52c1.4-1.36 2.9-2.78 4.45-4.24ZM14.61 67.25c-2.86 0-5.57-.5-7.66-1 2.8-1.94 3.54-5.48 4.21-8.71 1.2-5.67 2.32-11.04 11.77-12.23l8.66 8.5c-2.19 8.9-7.9 13.44-16.98 13.44Zm45.42-44.72a555.98 555.98 0 0 1-20.6 22.5l-7.48-7.32a560.41 560.41 0 0 1 22.98-20.15C67.76 6.96 72.88 3.94 74.8 3.08c-.86 1.88-3.93 6.88-14.78 19.45Z" fill="#fff"/></svg>