<svg width="71" height="70" fill="none" xmlns="http://www.w3.org/2000/svg"><path d="M63.6625 6.0156h-6.517v-1.914C57.1455 1.84 55.3055 0 53.0439 0c-2.2616 0-4.1015 1.84-4.1015 4.1016v1.914H25.9736v-1.914C25.9736 1.84 24.1337 0 21.8721 0c-2.2616 0-4.1016 1.84-4.1016 4.1016v1.9646a1.364 1.364 0 0 0-.3645-.0506h-5.4474c-3.7694 0-6.836 3.0666-6.836 6.836v23.2877c0 .7551.6123 1.3672 1.3672 1.3672.755 0 1.3672-.6121 1.3672-1.3672V20.0977h49.2885c.755 0 1.3672-.6121 1.3672-1.3672s-.6122-1.3672-1.3672-1.3672H7.857v-4.5117c0-2.2616 1.84-4.1016 4.1016-4.1016h5.4474c.1265 0 .2483-.0186.3645-.0506v1.7596c0 2.2616 1.84 4.1015 4.1016 4.1015 2.2616 0 4.1015-1.8399 4.1015-4.1015V8.75h22.9688v1.709c0 2.2616 1.8399 4.1015 4.1015 4.1015 2.2616 0 4.1016-1.8399 4.1016-4.1015V8.75h6.517c2.2616 0 4.1015 1.84 4.1015 4.1016v51.9523c0 1.3573-1.1042 2.4617-2.4617 2.4617s-2.4618-1.1044-2.4618-2.4617v-3.5368c0-.7551-.6122-1.3672-1.3672-1.3672H45.5701c-.755 0-1.3672.6121-1.3672 1.3672s.6122 1.3672 1.3672 1.3672h14.536v2.1696c0 .8901.2254 1.7285.6214 2.4617H5.6937c-1.357 0-2.461-1.104-2.461-2.4609v-2.1704H33.834c.7549 0 1.3671-.6121 1.3671-1.3672s-.6122-1.3672-1.3671-1.3672H20.1735c2.389-2.0575 3.906-5.1008 3.906-8.4937 0-6.1817-5.0292-11.2109-11.2109-11.2109-6.1818 0-11.211 5.0292-11.211 11.2109 0 3.3929 1.517 6.4362 3.9061 8.4937H1.8656c-.755 0-1.3672.6121-1.3672 1.3672v3.5376C.4984 67.6694 2.8291 70 5.6937 70h59.6086c2.8651 0 5.1961-2.3309 5.1961-5.1961V12.8516c0-3.7694-3.0666-6.836-6.8359-6.836ZM23.2393 10.459c0 .7539-.6134 1.3672-1.3672 1.3672-.7539 0-1.3672-.6133-1.3672-1.3672V4.1016c0-.7539.6133-1.3672 1.3672-1.3672.7538 0 1.3672.6133 1.3672 1.3672v6.3574Zm31.1718 0c0 .7539-.6133 1.3672-1.3672 1.3672-.7538 0-1.3671-.6133-1.3671-1.3672V4.1016c0-.7539.6133-1.3672 1.3671-1.3672.7539 0 1.3672.6133 1.3672 1.3672v6.3574ZM4.3921 51.4062c0-4.674 3.8025-8.4765 8.4765-8.4765 4.674 0 8.4766 3.8025 8.4766 8.4765 0 4.6741-3.8026 8.4766-8.4766 8.4766-4.674 0-8.4766-3.8025-8.4766-8.4766Z" fill="#fff"/><path d="M64.525 17.7639a1.377 1.377 0 0 0-.9665-.4006c-.3597 0-.7123.1463-.9666.4006a1.3775 1.3775 0 0 0-.4006.9666c0 .3595.1462.7123.4006.9666.2545.2543.6069.4006.9666.4006a1.377 1.377 0 0 0 .9665-.4006 1.3778 1.3778 0 0 0 .4007-.9666c0-.3596-.1463-.7123-.4007-.9666ZM41.3294 60.2996c-.2542-.2543-.6069-.3992-.9665-.3992-.3596 0-.7123.1449-.9666.3992-.2543.2557-.4006.607-.4006.9666 0 .3609.1462.7123.4006.968.2543.2543.607.3992.9666.3992.3596 0 .7123-.1449.9665-.3992.2543-.2557.4007-.6084.4007-.968 0-.3596-.1463-.7109-.4007-.9666ZM31.4304 41.5625c-2.8647 0-5.1954 2.3306-5.1954 5.1953 0 2.8647 2.3307 5.1953 5.1954 5.1953 2.8646 0 5.1953-2.3306 5.1953-5.1953 0-2.8647-2.3307-5.1953-5.1953-5.1953Zm0 7.6563c-1.357 0-2.461-1.1041-2.461-2.461 0-1.3569 1.104-2.4609 2.461-2.4609 1.3569 0 2.4609 1.104 2.4609 2.4609s-1.104 2.461-2.4609 2.461ZM44.1907 41.5625c-2.8646 0-5.1953 2.3306-5.1953 5.1953 0 2.8647 2.3307 5.1953 5.1953 5.1953 2.8647 0 5.1953-2.3306 5.1953-5.1953 0-2.8647-2.3306-5.1953-5.1953-5.1953Zm0 7.6563c-1.3569 0-2.4609-1.1041-2.4609-2.461 0-1.3569 1.104-2.4609 2.4609-2.4609 1.357 0 2.461 1.104 2.461 2.4609s-1.104 2.461-2.461 2.461ZM56.9512 41.5625c-2.8646 0-5.1953 2.3306-5.1953 5.1953 0 2.8647 2.3307 5.1953 5.1953 5.1953 2.8647 0 5.1953-2.3306 5.1953-5.1953 0-2.8647-2.3306-5.1953-5.1953-5.1953Zm0 7.6563c-1.3569 0-2.4609-1.1041-2.4609-2.461 0-1.3569 1.104-2.4609 2.4609-2.4609 1.357 0 2.461 1.104 2.461 2.4609s-1.104 2.461-2.461 2.461ZM18.67 27.3438c-2.8647 0-5.1953 2.3306-5.1953 5.1953 0 2.8646 2.3306 5.1953 5.1953 5.1953 2.8647 0 5.1953-2.3307 5.1953-5.1953 0-2.8647-2.3306-5.1953-5.1953-5.1953Zm0 7.6562c-1.3569 0-2.4609-1.104-2.4609-2.4609 0-1.357 1.104-2.461 2.4609-2.461s2.461 1.104 2.461 2.461C21.131 33.896 20.0269 35 18.67 35ZM44.1907 27.3438c-2.8646 0-5.1953 2.3306-5.1953 5.1953 0 2.8646 2.3307 5.1953 5.1953 5.1953 2.8647 0 5.1953-2.3307 5.1953-5.1953 0-2.8647-2.3306-5.1953-5.1953-5.1953Zm0 7.6562c-1.3569 0-2.4609-1.104-2.4609-2.4609 0-1.357 1.104-2.461 2.4609-2.461 1.357 0 2.461 1.104 2.461 2.461 0 1.3569-1.104 2.4609-2.461 2.4609ZM56.9512 27.3438c-2.8646 0-5.1953 2.3306-5.1953 5.1953 0 2.8646 2.3307 5.1953 5.1953 5.1953 2.8647 0 5.1953-2.3307 5.1953-5.1953 0-2.8647-2.3306-5.1953-5.1953-5.1953Zm0 7.6562c-1.3569 0-2.4609-1.104-2.4609-2.4609 0-1.357 1.104-2.461 2.4609-2.461 1.357 0 2.461 1.104 2.461 2.461 0 1.3569-1.104 2.4609-2.461 2.4609ZM31.4304 27.3438c-2.8647 0-5.1954 2.3306-5.1954 5.1953 0 2.8646 2.3307 5.1953 5.1954 5.1953 2.8646 0 5.1953-2.3307 5.1953-5.1953 0-2.8647-2.3307-5.1953-5.1953-5.1953Zm0 7.6562c-1.357 0-2.461-1.104-2.461-2.4609 0-1.357 1.104-2.461 2.461-2.461 1.3569 0 2.4609 1.104 2.4609 2.461 0 1.3569-1.104 2.4609-2.4609 2.4609ZM17.7391 48.0742c-.534-.5338-1.3994-.5338-1.9336 0l-4.4523 4.4526-1.5216-1.5216c-.534-.5339-1.3994-.5339-1.9336 0-.5339.5339-.5339 1.3996 0 1.9336l2.4884 2.4882c.2565.2563.6042.4004.9668.4004.3625 0 .7102-.1441.9667-.4004l5.4192-5.4193c.5339-.5339.5339-1.3996 0-1.9335Z" fill="#fff"/></svg>