<svg width="71" height="70" fill="none" xmlns="http://www.w3.org/2000/svg"><path d="M32.3 53.4a1.4 1.4 0 1 0 2 1.9c.4-.5.4-1.4 0-2-.6-.5-1.5-.5-2 0Z" fill="#fff"/><path d="M67.4 51 57 42.2 57 42a6.8 6.8 0 0 0-8.6.9l-5.6 5.6c-.4.4-1 .6-1.5.3a37.2 37.2 0 0 1-15.7-11.8 27.5 27.5 0 0 1-4.3-7.8c-.2-.5-.1-1.1.3-1.5l5.7-5.7a6.8 6.8 0 0 0 .8-8.6L20.5 3.1A6.9 6.9 0 0 0 10 2L8.8 3.1l-4 4c-4.9 5-5.7 12.2-2.4 21 3 7.7 8.6 16 16.2 23.5A70 70 0 0 0 42.7 68c7.8 2.9 16.1 3.2 22-2.6l3.8-3.9c3-3 2.5-8.1-1-10.5Zm-12-6.7 10.3 8.8.2.1a4.1 4.1 0 0 1 .7 6.4l-.3.3-17.8-13.3 1.8-1.7a4 4 0 0 1 5-.6ZM18.1 4.6v.1l7.6 10.4a4 4 0 0 1-.6 5L23.5 22l-12-17.6.4-.4c1.8-1.8 5-1.5 6.3.7Zm25.5 60.8a67.3 67.3 0 0 1-23.2-15.7A66.8 66.8 0 0 1 5 27.2c-2-5.5-3.4-13 1.7-18l2.9-3 12 17.6-2 2a4 4 0 0 0-1 4.4C19 32 21 35.6 23 38.4c3 4 8.4 9.4 17.1 13 1.6.7 3.3.4 4.5-.8l2-2 17.7 13.2-1.6 1.6c-5.4 5.5-13.3 4.1-19 2Z" fill="#fff"/><path d="M29.7 50.1c-1.4-1.3-4-3.4-5.3-4.8a90 90 0 0 1-8.6-10.2 1.4 1.4 0 0 0-2.3 1.5c2.6 3.7 6.3 7.9 9 10.6l5.4 5c.6.5 1.4.4 2-.2.4-.5.4-1.4-.2-1.9Z" fill="#fff"/></svg>