<svg width="61" height="70" fill="none" xmlns="http://www.w3.org/2000/svg"><path d="M59.263 12.087C49.632 9.448 39.944 5.34 31.247.205a1.472 1.472 0 0 0-1.497 0C20.802 5.487 11.638 9.374 1.733 12.087a1.472 1.472 0 0 0-1.083 1.42v15.046c0 15.493 7.148 25.749 13.144 31.624C20.249 66.502 27.768 70 30.499 70c2.73 0 10.249-3.498 16.704-9.823 5.996-5.875 13.143-16.13 13.143-31.624V13.507c0-.663-.443-1.244-1.083-1.42Zm-1.861 16.466c0 14.47-6.667 24.04-12.26 29.52-6.348 6.22-13.135 8.982-14.643 8.982-1.509 0-8.296-2.762-14.644-8.982-5.593-5.48-12.26-15.05-12.26-29.52V14.625C13.067 11.936 21.888 8.183 30.5 3.18 38.895 8.05 48.156 11.99 57.4 14.625v13.928Z" fill="#fff"/><path d="M17.447 14.46a1.472 1.472 0 0 0-1.91-.83c-2.63 1.037-5.33 1.99-8.025 2.836a1.473 1.473 0 0 0-1.031 1.405v5.686a1.473 1.473 0 0 0 2.944 0v-4.61a122.816 122.816 0 0 0 7.192-2.577 1.472 1.472 0 0 0 .83-1.91ZM20.244 14.74c.198 0 .398-.04.59-.123l.028-.012a1.47 1.47 0 0 0 .754-1.939 1.476 1.476 0 0 0-1.944-.755l-.023.01a1.47 1.47 0 0 0-.757 1.937c.242.553.784.882 1.352.882ZM48.042 47.48a1.473 1.473 0 0 0-2.038.427 35.84 35.84 0 0 1-4.232 5.286 37.61 37.61 0 0 1-4.223 3.758 1.473 1.473 0 0 0 1.785 2.341 40.593 40.593 0 0 0 4.555-4.052 38.743 38.743 0 0 0 4.58-5.722 1.472 1.472 0 0 0-.427-2.038ZM34.13 59.26l-.085.05a1.473 1.473 0 0 0 1.475 2.548l.097-.057a1.472 1.472 0 1 0-1.488-2.541ZM20.462 31.995a4.756 4.756 0 0 0-3.386-1.402 4.758 4.758 0 0 0-3.386 1.402 4.795 4.795 0 0 0 0 6.772l8.695 8.694a4.757 4.757 0 0 0 3.386 1.402 4.757 4.757 0 0 0 3.386-1.402l18.15-18.151a4.794 4.794 0 0 0 0-6.771 4.757 4.757 0 0 0-3.386-1.402 4.758 4.758 0 0 0-3.386 1.402L25.771 37.303l-5.31-5.308Zm22.156-7.374c.348-.348.81-.54 1.303-.54a1.846 1.846 0 0 1 1.303 3.146L27.075 45.38c-.348.348-.81.539-1.303.539-.493 0-.956-.191-1.304-.54l-8.694-8.694a1.845 1.845 0 0 1 1.303-3.146c.493 0 .955.191 1.303.54l6.35 6.35a1.473 1.473 0 0 0 2.082 0L42.618 24.62Z" fill="#fff"/></svg>