<svg width="17" height="18" fill="none" xmlns="http://www.w3.org/2000/svg"><path d="M14.82 2.53C13.5 1.24 11.37.61 8.5.67c-2.9.06-4.85.57-6.12 1.6C1.15 3.29.57 4.76.57 6.9v2.2c0 2.54 1.37 5.33 3.97 5.75a.55.55 0 1 0 .18-1.09c-1.98-.32-3.04-2.64-3.04-4.66V6.9c0-3.08 1.14-5.02 6.83-5.13 2.58-.05 4.44.47 5.54 1.55.86.84 1.27 2 1.27 3.58v2.2c0 3.32-1.5 4.79-5.32 5.22H7.3a.55.55 0 0 0-.4.16L5 16.4a.55.55 0 0 0 .78.78l1.75-1.75h2.57c2.2-.25 3.7-.82 4.72-1.8 1.09-1.03 1.61-2.5 1.61-4.52V6.9c0-1.86-.54-3.33-1.6-4.37Z" fill="#fff"/><path d="M8.84 4.26a3.3 3.3 0 0 1 3.33 3.33.55.55 0 0 0 1.1 0 4.4 4.4 0 0 0-4.43-4.43.55.55 0 1 0 0 1.1Z" fill="#fff"/><path d="M8.84 6.2c.77 0 1.39.62 1.39 1.39a.55.55 0 0 0 1.1 0 2.5 2.5 0 0 0-2.49-2.5.55.55 0 0 0 0 1.11ZM6.37 7.14a.55.55 0 0 0 .63.91c.2-.13.66-.45.62-1.08-.02-.38-.36-.92-.64-1.3-.41-.57-.77-.91-1.06-1.02-.27-.1-.55-.1-.83 0a2 2 0 0 0-1.24 1.04c-.22.47-.21 1 .01 1.56a10.3 10.3 0 0 0 2.2 3.38 10.3 10.3 0 0 0 3.39 2.2c.28.12.56.17.82.17.26 0 .5-.05.73-.16a2 2 0 0 0 1.05-1.24c.1-.28.09-.56-.01-.83-.1-.29-.45-.64-1.01-1.06-.39-.28-.93-.62-1.3-.64-.64-.03-.96.43-1.1.63a.55.55 0 0 0 .92.62l.11-.15c.31.1 1.2.75 1.35 1v.08c-.08.2-.21.48-.46.6-.24.1-.5.04-.69-.04a9.2 9.2 0 0 1-3.01-1.96 9.2 9.2 0 0 1-1.97-3.02c-.07-.18-.14-.45-.03-.68.11-.25.38-.39.59-.46h.08c.25.15.9 1.03 1 1.34a.89.89 0 0 1-.15.11Z" fill="#fff"/></svg>