<svg width="21" height="20" fill="none" xmlns="http://www.w3.org/2000/svg"><path d="m14.2457 11.7489-.0062.0558c-1.509-.8151-1.6668-.9236-1.8617-.6068-.1351.2194-.529.7169-.6477.8641-.1201.145-.2395.1562-.4433.0558-.2059-.1116-.8667-.3458-1.649-1.1044-.6093-.5912-1.0183-1.3163-1.139-1.5394-.2011-.3763.2195-.4298.6024-1.2151.0686-.1562.0336-.279-.0172-.3897-.0514-.1116-.461-1.2048-.6326-1.6406-.1647-.4343-.3342-.3793-.4612-.3793-.3952-.0372-.6841-.0312-.9387.2559-1.1075 1.3193-.8283 2.6802.1194 4.1274 1.8624 2.6415 2.8546 3.1279 4.669 3.8031.4899.1689.9366.1451 1.29.09.3939-.0676 1.2125-.5362 1.3834-1.0605.175-.5242.175-.9593.1235-1.0597-.0507-.1004-.1852-.1562-.3911-.2566Z" fill="#fff"/><path d="M16.4167 4.062C11.0771-1.0997 2.2403 2.644 2.2368 9.9258c0 1.4555.3813 2.875 1.1077 4.1284l-1.1778 4.2791 4.3993-1.1472c5.4896 2.9652 12.2646-.9722 12.2673-7.2561 0-2.2055-.8611-4.2812-2.427-5.8409l.0104-.027Zm1.0291 5.845c-.0041 5.3007-5.8229 8.611-10.425 5.9055l-.25-.1486-2.6041.6771.6979-2.5312-.166-.2604C1.8347 8.9904 5.125 3.0322 10.55 3.0322c1.8431 0 3.5729.7187 4.8757 2.0208 1.3021 1.291 2.0201 3.0208 2.0201 4.854Z" fill="#fff"/></svg>