<svg width="113" height="35" viewBox="0 0 113 35" fill="none" xmlns="http://www.w3.org/2000/svg">
<path d="M1.03 13.438H8.39V34H1.03V13.438ZM1.766 7.826C0.968667 6.998 0.57 6.01667 0.57 4.882C0.57 3.74733 0.968667 2.78133 1.766 1.984C2.594 1.156 3.57533 0.741998 4.71 0.741998C5.84467 0.741998 6.81067 1.156 7.608 1.984C8.436 2.78133 8.85 3.74733 8.85 4.882C8.85 6.01667 8.436 6.998 7.608 7.826C6.81067 8.62333 5.84467 9.022 4.71 9.022C3.57533 9.022 2.594 8.62333 1.766 7.826Z" fill="white"/>
<path d="M14.0735 3.318H22.0315V27.238H31.5995V34H14.0735V3.318ZM56.7949 24.294V25.076H41.4769C41.4769 26.5173 41.9063 27.6673 42.7649 28.526C43.4396 29.2007 44.4516 29.538 45.8009 29.538C46.7209 29.538 47.5183 29.354 48.1929 28.986C48.7756 28.6487 49.2049 28.1887 49.4809 27.606H56.5189C56.0589 29.262 55.2309 30.6727 54.0349 31.838C52.0723 33.7393 49.2816 34.69 45.6629 34.69C42.0749 34.69 39.2383 33.6473 37.1529 31.562C35.1289 29.538 34.1169 26.9467 34.1169 23.788C34.1169 20.476 35.1443 17.8233 37.1989 15.83C39.2536 13.8367 42.0596 12.84 45.6169 12.84C48.8983 12.84 51.5356 13.7753 53.5289 15.646C55.7063 17.7313 56.7949 20.614 56.7949 24.294ZM41.7069 20.844H50.0329C49.8183 19.9547 49.4196 19.2187 48.8369 18.636C48.1009 17.9 47.0889 17.532 45.8009 17.532C44.5436 17.532 43.5469 17.9 42.8109 18.636C42.1976 19.3107 41.8296 20.0467 41.7069 20.844ZM76.9616 15.416V13.438H84.3216V34H76.9616V31.746C75.551 33.7087 73.4196 34.69 70.5676 34.69C67.685 34.69 65.2163 33.6013 63.1616 31.424C61.199 29.3387 60.2176 26.824 60.2176 23.88C60.2176 20.5067 61.2756 17.762 63.3916 15.646C65.3236 13.714 67.7923 12.748 70.7976 12.748C73.3123 12.748 75.367 13.6373 76.9616 15.416ZM72.4536 19.004C71.227 19.004 70.1536 19.4487 69.2336 20.338C68.2523 21.2887 67.7616 22.408 67.7616 23.696C67.7616 25.0453 68.237 26.1647 69.1876 27.054C70.169 27.974 71.273 28.434 72.4996 28.434C73.757 28.434 74.861 27.9587 75.8116 27.008C76.7316 26.088 77.1916 24.984 77.1916 23.696C77.1916 22.3773 76.7163 21.258 75.7656 20.338C74.815 19.4487 73.711 19.004 72.4536 19.004ZM112.667 0.465999V34H105.307V31.746C103.774 33.7087 101.704 34.69 99.0973 34.69C96.2453 34.69 93.838 33.7393 91.8753 31.838C89.6673 29.6913 88.5633 26.962 88.5633 23.65C88.5633 20.338 89.6827 17.624 91.9213 15.508C93.8533 13.668 96.276 12.748 99.1893 12.748C101.612 12.748 103.651 13.6373 105.307 15.416V0.465999H112.667ZM100.799 28.434C101.965 28.434 103.023 28.02 103.973 27.192C105.016 26.2413 105.537 25.076 105.537 23.696C105.537 22.4693 105.077 21.3653 104.157 20.384C103.299 19.464 102.179 19.004 100.799 19.004C99.5113 19.004 98.4227 19.4487 97.5333 20.338C96.5827 21.2887 96.1073 22.454 96.1073 23.834C96.1073 25.03 96.5827 26.1033 97.5333 27.054C98.4533 27.974 99.542 28.434 100.799 28.434Z" fill="url(#paint0_linear)"/>
<defs>
<linearGradient id="paint0_linear" x1="-1.5" y1="3.8085" x2="115.5" y2="3.8085" gradientUnits="userSpaceOnUse">
<stop stop-color="#4C62D7"/>
<stop offset="1" stop-color="#AB30E4"/>
</linearGradient>
</defs>
</svg>
